<svg width="23" height="27" viewBox="0 0 23 27" fill="none" xmlns="http://www.w3.org/2000/svg">
<path d="M21.8125 0.609375H4.28125C3.32503 0.612772 2.40894 0.994135 1.73279 1.67029C1.05663 2.34644 0.675272 3.26253 0.671875 4.21875V25.875C0.671875 26.0118 0.7262 26.1429 0.822898 26.2396C0.919597 26.3363 1.05075 26.3906 1.1875 26.3906H19.75C19.8868 26.3906 20.0179 26.3363 20.1146 26.2396C20.2113 26.1429 20.2656 26.0118 20.2656 25.875C20.2656 25.7382 20.2113 25.6071 20.1146 25.5104C20.0179 25.4137 19.8868 25.3594 19.75 25.3594H1.70312V24.8438C1.70651 24.161 1.97922 23.5072 2.46198 23.0245C2.94474 22.5417 3.59853 22.269 4.28125 22.2656H21.8125C21.9493 22.2656 22.0804 22.2113 22.1771 22.1146C22.2738 22.0179 22.3281 21.8868 22.3281 21.75V1.125C22.3281 0.988248 22.2738 0.857097 22.1771 0.760398C22.0804 0.6637 21.9493 0.609375 21.8125 0.609375ZM9.95312 1.64062H17.1719V12.4688L13.8719 9.99375C13.7835 9.92476 13.6746 9.88728 13.5625 9.88728C13.4504 9.88728 13.3415 9.92476 13.2531 9.99375L9.95312 12.4688V1.64062ZM21.2969 21.2344H4.28125C3.80099 21.2336 3.32543 21.329 2.88264 21.515C2.43985 21.7009 2.03879 21.9737 1.70312 22.3172V4.21875C1.70651 3.53603 1.97922 2.88224 2.46198 2.39948C2.94474 1.91672 3.59853 1.64401 4.28125 1.64062H8.92188V13.5C8.92401 13.5955 8.95137 13.6887 9.00117 13.7702C9.05098 13.8517 9.12146 13.9186 9.20547 13.9641C9.29155 14.0068 9.38786 14.0246 9.48352 14.0155C9.57919 14.0064 9.6704 13.9707 9.74687 13.9125L13.5625 11.0508L17.3781 13.9125C17.4686 13.9771 17.5764 14.0131 17.6875 14.0156C17.7679 14.0172 17.8474 13.9996 17.9195 13.9641C18.0035 13.9186 18.074 13.8517 18.1238 13.7702C18.1736 13.6887 18.201 13.5955 18.2031 13.5V1.64062H21.2969V21.2344Z" fill="#314C61"/>
</svg>
