<?xml version="1.0" encoding="utf-8"?>
<!-- Generator: Adobe Illustrator 26.5.0, SVG Export Plug-In . SVG Version: 6.00 Build 0)  -->
<svg version="1.1" id="Calque_1" xmlns="http://www.w3.org/2000/svg" xmlns:xlink="http://www.w3.org/1999/xlink" x="0px" y="0px"
	 viewBox="0 0 200 200" style="enable-background:new 0 0 200 200;" xml:space="preserve">
<style type="text/css">
	.st0{display:none;}
	.st1{display:inline;fill:#FFFFFF;}
	.st2{fill:#FFFFFF;}
	.st3{fill:#EF7B3C;}
</style>
<g id="Calque_5">
	<g>
		<g class="st0">
			<path class="st1" d="M232.2,193.2c-0.6,0-1.1-0.2-1.6-0.6c-0.4-0.4-0.7-1-0.7-1.6v-39.9c0-0.6,0.2-1.1,0.7-1.6
				c0.4-0.4,1-0.7,1.6-0.7s1.1,0.2,1.6,0.7s0.7,1,0.7,1.6v37.9h22.3c0.6,0,1.1,0.2,1.6,0.6s0.7,0.9,0.7,1.5s-0.2,1.1-0.7,1.5
				c-0.4,0.4-1,0.6-1.6,0.6H232.2z"/>
			<path class="st1" d="M261.7,163.1c-0.5,0-0.8-0.2-1.2-0.6c-0.3-0.4-0.4-0.9-0.1-1.4c0.5-1.3,0.9-2.4,1-3.3c0.1-0.9,0.1-1.7,0-2.3
				c-0.1-0.7-0.2-1.3-0.4-1.9s-0.2-1.3-0.2-2c0-0.9,0.3-1.6,0.8-2.2c0.5-0.6,1.3-0.8,2.1-0.8c1,0,1.7,0.4,2.3,1.2
				c0.5,0.8,0.8,1.9,0.8,3.3c0,0.9-0.2,1.9-0.5,3c-0.4,1.1-0.8,2.3-1.3,3.3c-0.5,1.1-1.1,2-1.7,2.7c-0.6,0.7-1.2,1.1-1.7,1.1H261.7z
				"/>
			<path class="st1" d="M289.1,193.5c-3.1,0-5.8-0.7-8.2-2c-2.4-1.3-4.2-3.2-5.6-5.6c-1.4-2.4-2-5.1-2-8.2c0-3.1,0.7-5.9,1.9-8.2
				c1.3-2.4,3-4.2,5.3-5.6c2.3-1.4,4.8-2,7.8-2s5.4,0.7,7.5,2c2.1,1.3,3.8,3.1,5,5.4c1.2,2.3,1.8,5,1.8,7.9c0,0.6-0.2,1.1-0.6,1.4
				c-0.4,0.4-0.9,0.5-1.5,0.5h-24.2v-3.6h24.7l-2.4,1.7c0-2.2-0.4-4.2-1.2-5.9c-0.8-1.7-2-3.1-3.6-4.1c-1.6-1-3.4-1.5-5.5-1.5
				s-4.1,0.5-5.7,1.6s-2.9,2.4-3.8,4.2c-0.8,1.8-1.3,3.8-1.3,6.1c0,2.3,0.5,4.4,1.5,6.1c1,1.8,2.4,3.2,4.1,4.2c1.7,1,3.8,1.6,6,1.6
				c1.4,0,2.7-0.2,4.1-0.7c1.4-0.5,2.5-1.1,3.3-1.8c0.4-0.4,0.9-0.5,1.4-0.5c0.5,0,1,0.1,1.4,0.4c0.5,0.5,0.8,1,0.8,1.5
				c0,0.5-0.2,1-0.7,1.4c-1.3,1.1-2.9,2-4.8,2.6c-1.9,0.7-3.8,1.1-5.6,1.1H289.1z M287.5,157.5c-0.6,0-1.1-0.2-1.6-0.7
				s-0.7-1-0.7-1.6s0.2-1.1,0.5-1.5l6.4-6.4c0.4-0.4,1-0.6,1.6-0.6c0.7,0,1.2,0.2,1.6,0.7s0.7,1,0.7,1.6c0,0.2,0,0.5-0.1,0.8
				s-0.2,0.5-0.5,0.7l-6.4,6.4c-0.4,0.4-0.9,0.5-1.5,0.5L287.5,157.5z"/>
			<path class="st1" d="M322.7,193.5c-3,0-5.7-0.7-8-2.1c-2.3-1.4-4.2-3.3-5.6-5.7c-1.4-2.4-2-5.1-2-8.1c0-3,0.7-5.7,1.9-8.1
				c1.3-2.4,3-4.2,5.3-5.7c2.3-1.4,4.8-2.1,7.8-2.1c2.3,0,4.5,0.5,6.4,1.4c2,0.9,3.7,2.3,5.1,4.1c0.4,0.5,0.6,1,0.5,1.4
				c-0.1,0.5-0.4,1-1,1.3c-0.4,0.3-0.9,0.4-1.4,0.3c-0.5-0.1-1-0.4-1.3-0.8c-2.2-2.5-5-3.8-8.3-3.8c-2.1,0-4,0.5-5.6,1.6
				s-2.9,2.4-3.8,4.2c-0.9,1.7-1.3,3.8-1.3,6.1c0,2.3,0.5,4.3,1.4,6.1c1,1.8,2.3,3.2,4,4.2s3.6,1.6,5.9,1.6c1.5,0,2.9-0.2,4.1-0.6
				c1.3-0.4,2.3-1,3.3-1.9c0.5-0.4,1-0.6,1.4-0.6s1,0.1,1.4,0.5c0.5,0.4,0.7,0.9,0.8,1.4c0,0.5-0.1,1-0.5,1.4
				C330.4,192.2,326.9,193.5,322.7,193.5L322.7,193.5z"/>
			<path class="st1" d="M356.9,193.5c-3,0-5.7-0.7-8.2-2c-2.4-1.4-4.2-3.2-5.6-5.6c-1.4-2.4-2-5.1-2-8.1s0.7-5.8,2-8.2
				c1.4-2.4,3.2-4.2,5.6-5.6c2.4-1.4,5.1-2,8.2-2s5.7,0.7,8.1,2c2.4,1.4,4.2,3.2,5.6,5.6c1.4,2.4,2.1,5.1,2.1,8.2s-0.7,5.7-2.1,8.1
				c-1.4,2.4-3.3,4.2-5.6,5.6C362.6,192.9,359.9,193.5,356.9,193.5z M356.9,189.5c2.2,0,4.2-0.5,5.9-1.6c1.7-1,3.1-2.4,4.1-4.2
				c1-1.7,1.5-3.8,1.5-6.1c0-2.3-0.5-4.3-1.5-6.1c-1-1.8-2.3-3.2-4.1-4.2c-1.7-1-3.7-1.6-5.9-1.6c-2.2,0-4.2,0.5-5.9,1.6
				c-1.7,1-3.1,2.4-4.1,4.2c-1,1.8-1.5,3.8-1.5,6.1c0,2.3,0.5,4.3,1.5,6.1c1,1.8,2.4,3.2,4.1,4.2S354.7,189.5,356.9,189.5z"/>
			<path class="st1" d="M388,193.2c-1.5,0-2.9-0.4-4.1-1.3c-1.2-0.8-2.1-2-2.8-3.5c-0.7-1.5-1-3.2-1-5.1V151c0-0.7,0.2-1.1,0.6-1.6
				s0.9-0.6,1.6-0.6c0.7,0,1.2,0.2,1.6,0.6c0.4,0.4,0.6,0.9,0.6,1.6v32.4c0,1.6,0.4,2.9,1,4c0.7,1.1,1.5,1.6,2.5,1.6h1.4
				c0.6,0,1,0.2,1.4,0.6c0.4,0.4,0.5,0.9,0.5,1.6c0,0.7-0.2,1.2-0.7,1.6c-0.5,0.4-1.1,0.6-1.9,0.6L388,193.2L388,193.2z"/>
			<path class="st1" d="M409.7,193.5c-3.1,0-5.8-0.7-8.2-2c-2.4-1.3-4.2-3.2-5.6-5.6c-1.4-2.4-2-5.1-2-8.2c0-3.1,0.7-5.9,1.9-8.2
				c1.3-2.4,3-4.2,5.3-5.6c2.3-1.4,4.8-2,7.8-2c2.9,0,5.4,0.7,7.5,2c2.1,1.3,3.8,3.1,5,5.4c1.2,2.3,1.8,5,1.8,7.9
				c0,0.6-0.2,1.1-0.6,1.4c-0.4,0.4-0.9,0.5-1.5,0.5h-24.2v-3.6h24.7l-2.4,1.7c0-2.2-0.4-4.2-1.2-5.9c-0.8-1.7-2-3.1-3.6-4.1
				c-1.6-1-3.4-1.5-5.5-1.5s-4.1,0.5-5.7,1.6s-2.9,2.4-3.8,4.2c-0.8,1.8-1.3,3.8-1.3,6.1c0,2.3,0.5,4.4,1.5,6.1
				c1,1.8,2.4,3.2,4.1,4.2s3.8,1.6,6,1.6c1.4,0,2.7-0.2,4.1-0.7c1.4-0.5,2.5-1.1,3.3-1.8c0.4-0.4,0.9-0.5,1.4-0.5s1,0.1,1.4,0.4
				c0.5,0.5,0.8,1,0.8,1.5c0,0.5-0.2,1-0.7,1.4c-1.3,1.1-2.9,2-4.8,2.6s-3.8,1.1-5.6,1.1H409.7z"/>
			<path class="st1" d="M461.5,193.5c-3,0-5.7-0.7-8.1-2.1c-2.4-1.4-4.3-3.3-5.7-5.7c-1.4-2.4-2.1-5.1-2.1-8.1s0.7-5.7,2-8.1
				c1.4-2.4,3.2-4.2,5.5-5.7c2.3-1.4,5-2.1,7.9-2.1c2.6,0,4.8,0.5,6.9,1.6c2,1.1,3.7,2.5,5,4.3v-16.7c0-0.7,0.2-1.2,0.6-1.6
				s1-0.6,1.6-0.6c0.7,0,1.2,0.2,1.6,0.6s0.7,1,0.7,1.6v26.7c-0.1,2.9-0.8,5.6-2.2,7.9c-1.4,2.4-3.3,4.2-5.7,5.6c-2.4,1.4-5,2-8,2
				L461.5,193.5z M461.5,189.5c2.2,0,4.2-0.5,5.9-1.6s3.1-2.4,4.1-4.2c1-1.8,1.5-3.8,1.5-6.1c0-2.3-0.5-4.2-1.5-6
				c-1-1.8-2.4-3.2-4.1-4.2s-3.7-1.6-5.9-1.6s-4.1,0.5-5.9,1.6c-1.7,1-3.1,2.4-4.2,4.2c-1,1.8-1.6,3.8-1.6,6c0,2.2,0.5,4.3,1.6,6.1
				c1,1.8,2.4,3.2,4.2,4.2C457.4,189,459.3,189.5,461.5,189.5z"/>
			<path class="st1" d="M501.7,193.5c-3.1,0-5.8-0.7-8.2-2c-2.4-1.3-4.2-3.2-5.6-5.6c-1.4-2.4-2-5.1-2-8.2c0-3.1,0.7-5.9,1.9-8.2
				c1.3-2.4,3-4.2,5.3-5.6c2.3-1.4,4.8-2,7.8-2c2.9,0,5.4,0.7,7.5,2s3.8,3.1,5,5.4c1.2,2.3,1.8,5,1.8,7.9c0,0.6-0.2,1.1-0.6,1.4
				c-0.4,0.4-0.9,0.5-1.5,0.5h-24.2v-3.6h24.7l-2.4,1.7c0-2.2-0.4-4.2-1.2-5.9c-0.8-1.7-2-3.1-3.6-4.1c-1.6-1-3.4-1.5-5.5-1.5
				s-4.1,0.5-5.7,1.6s-2.9,2.4-3.8,4.2c-0.8,1.8-1.3,3.8-1.3,6.1c0,2.3,0.5,4.4,1.5,6.1c1,1.8,2.4,3.2,4.1,4.2s3.8,1.6,6,1.6
				c1.4,0,2.7-0.2,4.1-0.7c1.4-0.5,2.5-1.1,3.3-1.8c0.4-0.4,0.9-0.5,1.4-0.5s1,0.1,1.4,0.4c0.5,0.5,0.8,1,0.8,1.5
				c0,0.5-0.2,1-0.7,1.4c-1.3,1.1-2.9,2-4.8,2.6s-3.8,1.1-5.6,1.1H501.7z"/>
			<path class="st1" d="M546,193.2c-1.5,0-2.9-0.4-4.1-1.3c-1.2-0.8-2.1-2-2.8-3.5c-0.7-1.5-1-3.2-1-5.1V151c0-0.7,0.2-1.1,0.6-1.6
				s0.9-0.6,1.6-0.6c0.7,0,1.2,0.2,1.6,0.6c0.4,0.4,0.6,0.9,0.6,1.6v32.4c0,1.6,0.4,2.9,1,4c0.7,1.1,1.5,1.6,2.5,1.6h1.4
				c0.6,0,1,0.2,1.4,0.6c0.4,0.4,0.5,0.9,0.5,1.6c0,0.7-0.2,1.2-0.7,1.6c-0.5,0.4-1.1,0.6-1.9,0.6C546.7,193.2,546,193.2,546,193.2z
				"/>
			<path class="st1" d="M567.3,193.5c-2.9,0-5.6-0.7-7.9-2.1c-2.3-1.4-4.2-3.3-5.5-5.7c-1.4-2.4-2-5.1-2-8.1c0-3,0.7-5.7,2.1-8.1
				c1.4-2.4,3.3-4.2,5.7-5.7c2.4-1.4,5.1-2.1,8.1-2.1s5.7,0.7,8.1,2.1c2.4,1.4,4.2,3.3,5.6,5.7s2.1,5.1,2.1,8.1l-1.8,1.4
				c0,2.7-0.7,5.2-1.9,7.3c-1.3,2.1-3,3.9-5.2,5.1S570.1,193.5,567.3,193.5L567.3,193.5z M567.8,189.5c2.2,0,4.2-0.5,5.9-1.6
				c1.7-1,3.1-2.4,4.1-4.2s1.5-3.8,1.5-6s-0.5-4.3-1.5-6.1c-1-1.8-2.4-3.2-4.1-4.2c-1.7-1-3.7-1.6-5.9-1.6s-4.1,0.5-5.9,1.6
				c-1.7,1-3.1,2.4-4.2,4.2c-1,1.8-1.6,3.8-1.6,6.1s0.5,4.2,1.6,6s2.4,3.2,4.2,4.2C563.7,189,565.7,189.5,567.8,189.5z M581.4,193.2
				c-0.7,0-1.2-0.2-1.6-0.6s-0.6-0.9-0.6-1.6v-9.7l1.1-4.5l3.3,0.8v13.3c0,0.7-0.2,1.2-0.7,1.6C582.6,193.1,582,193.2,581.4,193.2
				L581.4,193.2z"/>
			<path class="st1" d="M606.9,167.1c-0.6,0-1.1-0.2-1.4-0.5c-0.4-0.4-0.6-0.8-0.6-1.3c0-0.5,0.2-1,0.6-1.4c0.4-0.4,0.8-0.5,1.4-0.5
				h14.5c0.5,0,1,0.2,1.4,0.5c0.4,0.4,0.6,0.8,0.6,1.4c0,0.5-0.2,1-0.6,1.3c-0.4,0.4-0.8,0.5-1.4,0.5H606.9z M621.1,193.2
				c-2,0-3.8-0.5-5.4-1.4c-1.6-1-2.8-2.3-3.7-3.9c-0.9-1.7-1.4-3.5-1.4-5.7v-27.7c0-0.7,0.2-1.2,0.6-1.6s0.9-0.6,1.6-0.6
				s1.2,0.2,1.6,0.6c0.4,0.4,0.6,1,0.6,1.6v27.7c0,1.9,0.6,3.5,1.7,4.7c1.1,1.3,2.6,1.9,4.4,1.9h1.6c0.6,0,1.1,0.2,1.5,0.6
				c0.4,0.4,0.6,1,0.6,1.6c0,0.7-0.2,1.2-0.7,1.6c-0.5,0.4-1,0.6-1.7,0.6L621.1,193.2L621.1,193.2z"/>
			<path class="st1" d="M634,193.2c-0.7,0-1.2-0.2-1.6-0.5c-0.4-0.4-0.5-0.9-0.5-1.6v-26.7c0-0.7,0.2-1.2,0.5-1.6
				c0.4-0.4,0.9-0.5,1.6-0.5s1.2,0.2,1.6,0.5c0.4,0.4,0.5,0.9,0.5,1.6v26.7c0,0.7-0.2,1.2-0.5,1.6
				C635.2,193.1,634.7,193.2,634,193.2z M633.6,174.1c0.1-2.3,0.7-4.4,1.9-6.3c1.1-1.9,2.6-3.3,4.4-4.4c1.8-1.1,3.8-1.6,6-1.6
				c1.7,0,3.1,0.2,4.1,0.7c1,0.5,1.3,1.2,1.1,2.1c-0.2,0.5-0.4,1-0.8,1.1s-0.8,0.2-1.3,0.2s-1.1-0.1-1.7-0.1c-2.1-0.2-4,0-5.7,0.7
				c-1.7,0.6-3,1.6-3.9,2.9c-1,1.3-1.4,2.8-1.4,4.6C636.1,174.1,633.6,174.1,633.6,174.1z"/>
			<path class="st1" d="M669.4,193.5c-2.9,0-5.6-0.7-7.9-2.1c-2.3-1.4-4.2-3.3-5.5-5.7c-1.4-2.4-2-5.1-2-8.1c0-3,0.7-5.7,2.1-8.1
				c1.4-2.4,3.3-4.2,5.7-5.7c2.4-1.4,5.1-2.1,8.1-2.1c3,0,5.7,0.7,8.1,2.1c2.4,1.4,4.2,3.3,5.6,5.7c1.4,2.4,2.1,5.1,2.1,8.1
				l-1.8,1.4c0,2.7-0.7,5.2-1.9,7.3c-1.3,2.1-3,3.9-5.2,5.1C674.6,192.8,672.1,193.5,669.4,193.5L669.4,193.5z M669.8,189.5
				c2.2,0,4.2-0.5,5.9-1.6c1.7-1,3.1-2.4,4.1-4.2c1-1.8,1.5-3.8,1.5-6s-0.5-4.3-1.5-6.1c-1-1.8-2.4-3.2-4.1-4.2
				c-1.7-1-3.7-1.6-5.9-1.6s-4.1,0.5-5.9,1.6s-3.1,2.4-4.2,4.2c-1,1.8-1.6,3.8-1.6,6.1s0.5,4.2,1.6,6s2.4,3.2,4.2,4.2
				C665.7,189,667.7,189.5,669.8,189.5z M683.5,193.2c-0.7,0-1.2-0.2-1.6-0.6s-0.6-0.9-0.6-1.6v-9.7l1.1-4.5l3.3,0.8v13.3
				c0,0.7-0.2,1.2-0.7,1.6C684.6,193.1,684.1,193.2,683.5,193.2L683.5,193.2z"/>
			<path class="st1" d="M696.4,193.2c-0.7,0-1.3-0.2-1.6-0.6c-0.4-0.4-0.6-0.9-0.6-1.6v-26.6c0-0.7,0.2-1.2,0.6-1.6s1-0.6,1.6-0.6
				c0.7,0,1.2,0.2,1.6,0.6c0.4,0.4,0.6,1,0.6,1.6v26.6c0,0.7-0.2,1.2-0.6,1.6C697.5,193.1,697.1,193.2,696.4,193.2z M720.9,193.2
				c-0.7,0-1.2-0.2-1.6-0.6c-0.4-0.4-0.6-1-0.6-1.6v-14.7c0-2.3-0.5-4.3-1.3-5.8c-0.9-1.5-2.1-2.6-3.6-3.4c-1.6-0.8-3.3-1.1-5.2-1.1
				s-3.5,0.4-5,1.1s-2.7,1.7-3.6,2.9c-0.9,1.2-1.3,2.7-1.3,4.2h-3.1c0.1-2.4,0.7-4.5,1.9-6.4s2.8-3.3,4.8-4.4c2-1.1,4.2-1.6,6.7-1.6
				c2.7,0,5.1,0.5,7.2,1.7c2.1,1.1,3.8,2.7,5,4.9c1.3,2.1,1.9,4.8,1.9,7.9V191c0,0.6-0.2,1.1-0.6,1.6S721.5,193.2,720.9,193.2
				L720.9,193.2z"/>
			<path class="st1" d="M743.6,193.5c-2.3,0-4.5-0.4-6.7-1.1c-2.2-0.8-4-1.9-5.4-3.4c-0.4-0.5-0.6-1-0.5-1.6s0.4-1.1,0.8-1.5
				c0.5-0.4,1.1-0.5,1.7-0.5c0.6,0.1,1,0.3,1.4,0.7c0.9,1.1,2.1,1.9,3.6,2.4c1.5,0.5,3.2,0.8,5,0.8c2.8,0,4.8-0.5,6.1-1.4
				s1.9-2.1,1.9-3.5c0-1.4-0.7-2.5-1.9-3.3c-1.3-0.9-3.4-1.6-6.4-2.1c-3.8-0.6-6.6-1.7-8.4-3.2c-1.8-1.5-2.7-3.3-2.7-5.4
				c0-1.9,0.5-3.5,1.6-4.8c1-1.3,2.4-2.3,4.1-2.9c1.7-0.7,3.6-1,5.7-1c2.6,0,4.7,0.4,6.6,1.3c1.9,0.9,3.3,2,4.5,3.5
				c0.4,0.5,0.5,1,0.5,1.6c-0.1,0.5-0.4,1-0.9,1.3c-0.5,0.2-1,0.4-1.6,0.2c-0.6-0.1-1.1-0.4-1.5-0.8c-1-1.1-2-1.9-3.3-2.4
				c-1.3-0.5-2.7-0.8-4.4-0.8c-2.1,0-3.8,0.4-5,1.3s-1.9,1.9-1.9,3.2c0,0.9,0.2,1.6,0.7,2.3s1.3,1.2,2.4,1.7
				c1.1,0.5,2.8,0.9,4.9,1.3c2.9,0.5,5.1,1.1,6.7,2c1.7,0.9,2.8,1.9,3.5,3.1c0.7,1.2,1.1,2.5,1.1,3.9c0,1.8-0.5,3.3-1.6,4.7
				c-1.1,1.3-2.5,2.4-4.4,3.2s-3.9,1.1-6.3,1.1L743.6,193.5z"/>
			<path class="st1" d="M766.6,156.3c-0.8,0-1.6-0.3-2.1-0.9s-0.9-1.3-0.9-2.2c0-1,0.3-1.7,1-2.3c0.6-0.5,1.4-0.8,2.2-0.8
				s1.5,0.3,2.1,0.8c0.6,0.5,1,1.3,1,2.3c0,0.9-0.3,1.6-0.9,2.2s-1.4,0.9-2.2,0.9H766.6z M766.6,193.2c-0.7,0-1.3-0.2-1.6-0.6
				c-0.4-0.4-0.6-1-0.6-1.6v-26.6c0-0.7,0.2-1.2,0.6-1.6s1-0.6,1.6-0.6s1.2,0.2,1.6,0.6c0.4,0.4,0.6,1,0.6,1.6V191
				c0,0.7-0.2,1.2-0.6,1.6S767.2,193.2,766.6,193.2z"/>
			<path class="st1" d="M778,167.1c-0.6,0-1.1-0.2-1.4-0.5c-0.4-0.4-0.6-0.8-0.6-1.3c0-0.5,0.2-1,0.6-1.4c0.4-0.4,0.8-0.5,1.4-0.5
				h14.5c0.5,0,1,0.2,1.4,0.5c0.4,0.4,0.6,0.8,0.6,1.4c0,0.5-0.2,1-0.6,1.3c-0.4,0.4-0.8,0.5-1.4,0.5H778z M792.2,193.2
				c-2,0-3.8-0.5-5.4-1.4c-1.6-1-2.8-2.3-3.7-3.9c-0.9-1.7-1.4-3.5-1.4-5.7v-27.7c0-0.7,0.2-1.2,0.6-1.6c0.4-0.4,0.9-0.6,1.6-0.6
				c0.7,0,1.2,0.2,1.6,0.6c0.4,0.4,0.6,1,0.6,1.6v27.7c0,1.9,0.6,3.5,1.7,4.7c1.1,1.3,2.6,1.9,4.4,1.9h1.6c0.6,0,1.1,0.2,1.5,0.6
				c0.4,0.4,0.6,1,0.6,1.6c0,0.7-0.2,1.2-0.7,1.6c-0.5,0.4-1,0.6-1.7,0.6L792.2,193.2L792.2,193.2z"/>
			<path class="st1" d="M805.9,156.3c-0.8,0-1.6-0.3-2.1-0.9c-0.6-0.6-0.9-1.3-0.9-2.2c0-1,0.3-1.7,1-2.3c0.6-0.5,1.4-0.8,2.2-0.8
				s1.5,0.3,2.1,0.8c0.6,0.5,1,1.3,1,2.3c0,0.9-0.3,1.6-0.9,2.2c-0.6,0.6-1.4,0.9-2.2,0.9H805.9z M805.9,193.2
				c-0.7,0-1.3-0.2-1.6-0.6c-0.4-0.4-0.6-1-0.6-1.6v-26.6c0-0.7,0.2-1.2,0.6-1.6c0.4-0.4,1-0.6,1.6-0.6s1.2,0.2,1.6,0.6
				c0.4,0.4,0.6,1,0.6,1.6V191c0,0.7-0.2,1.2-0.6,1.6S806.6,193.2,805.9,193.2z"/>
			<path class="st1" d="M833.5,193.5c-3,0-5.7-0.7-8.2-2c-2.4-1.4-4.2-3.2-5.6-5.6c-1.4-2.4-2-5.1-2-8.1s0.7-5.8,2-8.2
				c1.4-2.4,3.2-4.2,5.6-5.6c2.4-1.4,5.1-2,8.2-2s5.7,0.7,8.1,2c2.4,1.4,4.2,3.2,5.6,5.6c1.4,2.4,2.1,5.1,2.1,8.2s-0.7,5.7-2.1,8.1
				c-1.4,2.4-3.3,4.2-5.6,5.6C839.2,192.9,836.5,193.5,833.5,193.5z M833.5,189.5c2.2,0,4.2-0.5,5.9-1.6c1.7-1,3.1-2.4,4.1-4.2
				c1-1.7,1.5-3.8,1.5-6.1c0-2.3-0.5-4.3-1.5-6.1c-1-1.8-2.3-3.2-4.1-4.2c-1.7-1-3.7-1.6-5.9-1.6c-2.2,0-4.2,0.5-5.9,1.6
				c-1.7,1-3.1,2.4-4.1,4.2c-1,1.8-1.5,3.8-1.5,6.1c0,2.3,0.5,4.3,1.5,6.1s2.4,3.2,4.1,4.2C829.3,189,831.3,189.5,833.5,189.5z"/>
			<path class="st1" d="M860.1,193.2c-0.7,0-1.3-0.2-1.6-0.6c-0.4-0.4-0.6-0.9-0.6-1.6v-26.6c0-0.7,0.2-1.2,0.6-1.6
				c0.4-0.4,1-0.6,1.6-0.6s1.2,0.2,1.6,0.6c0.4,0.4,0.6,1,0.6,1.6v26.6c0,0.7-0.2,1.2-0.6,1.6C861.2,193.1,860.8,193.2,860.1,193.2z
				 M884.6,193.2c-0.7,0-1.2-0.2-1.6-0.6c-0.4-0.4-0.6-1-0.6-1.6v-14.7c0-2.3-0.5-4.3-1.3-5.8c-0.9-1.5-2.1-2.6-3.6-3.4
				c-1.6-0.8-3.3-1.1-5.2-1.1s-3.5,0.4-5,1.1c-1.5,0.7-2.7,1.7-3.6,2.9c-0.9,1.2-1.3,2.7-1.3,4.2h-3.1c0.1-2.4,0.7-4.5,1.9-6.4
				c1.2-1.9,2.8-3.3,4.8-4.4s4.2-1.6,6.7-1.6c2.7,0,5.1,0.5,7.2,1.7c2.1,1.1,3.8,2.7,5,4.9c1.3,2.1,1.9,4.8,1.9,7.9V191
				c0,0.6-0.2,1.1-0.6,1.6S885.2,193.2,884.6,193.2L884.6,193.2z"/>
			<path class="st1" d="M915.3,193.2c-0.7,0-1.2-0.2-1.6-0.5c-0.4-0.4-0.5-0.9-0.5-1.6v-26.7c0-0.7,0.2-1.2,0.5-1.6
				c0.4-0.4,0.9-0.5,1.6-0.5s1.2,0.2,1.6,0.5c0.4,0.4,0.5,0.9,0.5,1.6v26.7c0,0.7-0.2,1.2-0.5,1.6
				C916.5,193.1,916,193.2,915.3,193.2z M914.9,174.1c0.1-2.3,0.7-4.4,1.9-6.3s2.6-3.3,4.4-4.4c1.8-1.1,3.8-1.6,6-1.6
				c1.7,0,3.1,0.2,4.1,0.7c1,0.5,1.3,1.2,1.1,2.1c-0.2,0.5-0.4,1-0.8,1.1c-0.4,0.2-0.8,0.2-1.3,0.2s-1.1-0.1-1.7-0.1
				c-2.1-0.2-4,0-5.7,0.7c-1.7,0.6-3,1.6-3.9,2.9c-1,1.3-1.4,2.8-1.4,4.6L914.9,174.1L914.9,174.1z"/>
			<path class="st1" d="M951.1,193.5c-3.1,0-5.8-0.7-8.2-2c-2.4-1.3-4.2-3.2-5.6-5.6c-1.4-2.4-2-5.1-2-8.2c0-3.1,0.7-5.9,1.9-8.2
				c1.3-2.4,3-4.2,5.3-5.6c2.3-1.4,4.8-2,7.8-2c2.9,0,5.4,0.7,7.5,2c2.1,1.3,3.8,3.1,5,5.4c1.2,2.3,1.8,5,1.8,7.9
				c0,0.6-0.2,1.1-0.6,1.4c-0.4,0.4-0.9,0.5-1.5,0.5h-24.2v-3.6h24.7l-2.4,1.7c0-2.2-0.4-4.2-1.2-5.9c-0.8-1.7-2-3.1-3.6-4.1
				c-1.6-1-3.4-1.5-5.5-1.5s-4.1,0.5-5.7,1.6c-1.7,1-2.9,2.4-3.8,4.2c-0.8,1.8-1.3,3.8-1.3,6.1c0,2.3,0.5,4.4,1.5,6.1
				c1,1.8,2.4,3.2,4.1,4.2c1.7,1,3.8,1.6,6,1.6c1.4,0,2.7-0.2,4.1-0.7c1.4-0.5,2.5-1.1,3.3-1.8c0.4-0.4,0.9-0.5,1.4-0.5
				c0.5,0,1,0.1,1.4,0.4c0.5,0.5,0.8,1,0.8,1.5c0,0.5-0.2,1-0.7,1.4c-1.3,1.1-2.9,2-4.8,2.6c-1.9,0.7-3.8,1.1-5.6,1.1H951.1z
				 M949.5,157.5c-0.6,0-1.1-0.2-1.6-0.7c-0.4-0.4-0.7-1-0.7-1.6s0.2-1.1,0.5-1.5l6.4-6.4c0.4-0.4,1-0.6,1.6-0.6
				c0.7,0,1.2,0.2,1.6,0.7s0.7,1,0.7,1.6c0,0.2,0,0.5-0.1,0.8s-0.2,0.5-0.5,0.7l-6.4,6.4c-0.4,0.4-0.9,0.5-1.5,0.5L949.5,157.5z"/>
			<path class="st1" d="M982.8,193.5c-2.3,0-4.5-0.4-6.7-1.1s-4-1.9-5.4-3.4c-0.4-0.5-0.6-1-0.5-1.6c0.1-0.6,0.4-1.1,0.8-1.5
				c0.5-0.4,1.1-0.5,1.7-0.5c0.6,0.1,1,0.3,1.4,0.7c0.9,1.1,2.1,1.9,3.6,2.4c1.5,0.5,3.2,0.8,5,0.8c2.8,0,4.8-0.5,6.1-1.4
				c1.3-1,1.9-2.1,1.9-3.5c0-1.4-0.7-2.5-1.9-3.3c-1.3-0.9-3.4-1.6-6.4-2.1c-3.8-0.6-6.6-1.7-8.4-3.2s-2.7-3.3-2.7-5.4
				c0-1.9,0.5-3.5,1.6-4.8c1-1.3,2.4-2.3,4.1-2.9c1.7-0.7,3.6-1,5.7-1c2.6,0,4.7,0.4,6.6,1.3c1.9,0.9,3.3,2,4.5,3.5
				c0.4,0.5,0.5,1,0.5,1.6c-0.1,0.5-0.4,1-0.9,1.3c-0.5,0.2-1,0.4-1.6,0.2c-0.6-0.1-1.1-0.4-1.5-0.8c-1-1.1-2-1.9-3.3-2.4
				c-1.3-0.5-2.7-0.8-4.4-0.8c-2.1,0-3.8,0.4-5,1.3s-1.9,1.9-1.9,3.2c0,0.9,0.2,1.6,0.7,2.3c0.5,0.7,1.3,1.2,2.4,1.7
				c1.1,0.5,2.8,0.9,4.9,1.3c2.9,0.5,5.1,1.1,6.7,2c1.7,0.9,2.8,1.9,3.5,3.1c0.7,1.2,1.1,2.5,1.1,3.9c0,1.8-0.5,3.3-1.6,4.7
				c-1.1,1.3-2.5,2.4-4.4,3.2c-1.9,0.8-3.9,1.1-6.3,1.1L982.8,193.5z"/>
			<path class="st1" d="M1005.7,156.3c-0.8,0-1.6-0.3-2.1-0.9s-0.9-1.3-0.9-2.2c0-1,0.3-1.7,1-2.3c0.6-0.5,1.4-0.8,2.2-0.8
				s1.5,0.3,2.1,0.8c0.6,0.5,1,1.3,1,2.3c0,0.9-0.3,1.6-0.9,2.2c-0.6,0.6-1.4,0.9-2.2,0.9H1005.7z M1005.7,193.2
				c-0.7,0-1.3-0.2-1.6-0.6c-0.4-0.4-0.6-1-0.6-1.6v-26.6c0-0.7,0.2-1.2,0.6-1.6s1-0.6,1.6-0.6c0.7,0,1.2,0.2,1.6,0.6
				c0.4,0.4,0.6,1,0.6,1.6V191c0,0.7-0.2,1.2-0.6,1.6C1006.9,193.1,1006.4,193.2,1005.7,193.2z"/>
			<path class="st1" d="M1025.8,193.2c-1.5,0-2.9-0.4-4.1-1.3c-1.2-0.8-2.1-2-2.8-3.5c-0.7-1.5-1-3.2-1-5.1V151
				c0-0.7,0.2-1.1,0.6-1.6s0.9-0.6,1.6-0.6c0.7,0,1.2,0.2,1.6,0.6c0.4,0.4,0.6,0.9,0.6,1.6v32.4c0,1.6,0.4,2.9,1,4
				c0.7,1.1,1.5,1.6,2.5,1.6h1.4c0.6,0,1,0.2,1.4,0.6c0.4,0.4,0.5,0.9,0.5,1.6c0,0.7-0.2,1.2-0.7,1.6c-0.5,0.4-1.1,0.6-1.9,0.6
				L1025.8,193.2L1025.8,193.2z"/>
			<path class="st1" d="M1038.3,156.3c-0.8,0-1.6-0.3-2.1-0.9s-0.9-1.3-0.9-2.2c0-1,0.3-1.7,1-2.3c0.6-0.5,1.4-0.8,2.2-0.8
				s1.5,0.3,2.1,0.8c0.6,0.5,1,1.3,1,2.3c0,0.9-0.3,1.6-0.9,2.2c-0.6,0.6-1.4,0.9-2.2,0.9H1038.3z M1038.3,193.2
				c-0.7,0-1.3-0.2-1.6-0.6c-0.4-0.4-0.6-1-0.6-1.6v-26.6c0-0.7,0.2-1.2,0.6-1.6s1-0.6,1.6-0.6s1.2,0.2,1.6,0.6
				c0.4,0.4,0.6,1,0.6,1.6V191c0,0.7-0.2,1.2-0.6,1.6S1038.9,193.2,1038.3,193.2z"/>
			<path class="st1" d="M1065.8,193.5c-3.1,0-5.8-0.7-8.2-2c-2.4-1.3-4.2-3.2-5.6-5.6c-1.4-2.4-2-5.1-2-8.2c0-3.1,0.7-5.9,1.9-8.2
				c1.3-2.4,3-4.2,5.3-5.6c2.3-1.4,4.8-2,7.8-2s5.4,0.7,7.5,2c2.1,1.3,3.8,3.1,5,5.4c1.2,2.3,1.8,5,1.8,7.9c0,0.6-0.2,1.1-0.6,1.4
				c-0.4,0.4-0.9,0.5-1.5,0.5h-24.2v-3.6h24.7l-2.4,1.7c0-2.2-0.4-4.2-1.2-5.9c-0.8-1.7-2-3.1-3.6-4.1c-1.6-1-3.4-1.5-5.5-1.5
				s-4.1,0.5-5.7,1.6c-1.7,1-2.9,2.4-3.8,4.2c-0.8,1.8-1.3,3.8-1.3,6.1c0,2.3,0.5,4.4,1.5,6.1c1,1.8,2.4,3.2,4.1,4.2
				c1.7,1,3.8,1.6,6,1.6c1.4,0,2.7-0.2,4.1-0.7c1.4-0.5,2.5-1.1,3.3-1.8c0.4-0.4,0.9-0.5,1.4-0.5s1,0.1,1.4,0.4
				c0.5,0.5,0.8,1,0.8,1.5c0,0.5-0.2,1-0.7,1.4c-1.3,1.1-2.9,2-4.8,2.6s-3.8,1.1-5.6,1.1H1065.8z"/>
			<path class="st1" d="M1088.8,193.2c-0.7,0-1.3-0.2-1.6-0.6c-0.4-0.4-0.6-0.9-0.6-1.6v-26.6c0-0.7,0.2-1.2,0.6-1.6
				c0.4-0.4,1-0.6,1.6-0.6s1.2,0.2,1.6,0.6c0.4,0.4,0.6,1,0.6,1.6v26.6c0,0.7-0.2,1.2-0.6,1.6C1090,193.1,1089.5,193.2,1088.8,193.2
				z M1113.3,193.2c-0.7,0-1.2-0.2-1.6-0.6c-0.4-0.4-0.6-1-0.6-1.6v-14.7c0-2.3-0.5-4.3-1.3-5.8c-0.9-1.5-2.1-2.6-3.6-3.4
				c-1.6-0.8-3.3-1.1-5.2-1.1s-3.5,0.4-5,1.1c-1.5,0.7-2.7,1.7-3.6,2.9c-0.9,1.2-1.3,2.7-1.3,4.2h-3.1c0.1-2.4,0.7-4.5,1.9-6.4
				c1.2-1.9,2.8-3.3,4.8-4.4c2-1.1,4.2-1.6,6.7-1.6c2.7,0,5.1,0.5,7.2,1.7c2.1,1.1,3.8,2.7,5,4.9c1.3,2.1,1.9,4.8,1.9,7.9V191
				c0,0.6-0.2,1.1-0.6,1.6S1114,193.2,1113.3,193.2L1113.3,193.2z"/>
			<path class="st1" d="M1123.2,167.1c-0.6,0-1.1-0.2-1.4-0.5c-0.4-0.4-0.6-0.8-0.6-1.3c0-0.5,0.2-1,0.6-1.4
				c0.4-0.4,0.8-0.5,1.4-0.5h14.5c0.5,0,1,0.2,1.4,0.5c0.4,0.4,0.6,0.8,0.6,1.4c0,0.5-0.2,1-0.6,1.3c-0.4,0.4-0.8,0.5-1.4,0.5
				H1123.2z M1137.4,193.2c-2,0-3.8-0.5-5.4-1.4c-1.6-1-2.8-2.3-3.7-3.9c-0.9-1.7-1.4-3.5-1.4-5.7v-27.7c0-0.7,0.2-1.2,0.6-1.6
				c0.4-0.4,0.9-0.6,1.6-0.6s1.2,0.2,1.6,0.6c0.4,0.4,0.6,1,0.6,1.6v27.7c0,1.9,0.6,3.5,1.7,4.7c1.1,1.3,2.6,1.9,4.4,1.9h1.6
				c0.6,0,1.1,0.2,1.5,0.6c0.4,0.4,0.6,1,0.6,1.6c0,0.7-0.2,1.2-0.7,1.6c-0.5,0.4-1,0.6-1.7,0.6L1137.4,193.2L1137.4,193.2z"/>
			<path class="st1" d="M1162.3,193.5c-3.1,0-5.8-0.7-8.2-2c-2.4-1.3-4.2-3.2-5.6-5.6c-1.4-2.4-2-5.1-2-8.2c0-3.1,0.7-5.9,1.9-8.2
				c1.3-2.4,3-4.2,5.3-5.6c2.3-1.4,4.8-2,7.8-2c2.9,0,5.4,0.7,7.5,2c2.1,1.3,3.8,3.1,5,5.4c1.2,2.3,1.8,5,1.8,7.9
				c0,0.6-0.2,1.1-0.6,1.4c-0.4,0.4-0.9,0.5-1.5,0.5h-24.2v-3.6h24.7l-2.4,1.7c0-2.2-0.4-4.2-1.2-5.9c-0.8-1.7-2-3.1-3.6-4.1
				c-1.6-1-3.4-1.5-5.5-1.5s-4.1,0.5-5.7,1.6c-1.7,1-2.9,2.4-3.8,4.2c-0.8,1.8-1.3,3.8-1.3,6.1c0,2.3,0.5,4.4,1.5,6.1
				c1,1.8,2.4,3.2,4.1,4.2s3.8,1.6,6,1.6c1.4,0,2.7-0.2,4.1-0.7c1.4-0.5,2.5-1.1,3.3-1.8c0.4-0.4,0.9-0.5,1.4-0.5
				c0.5,0,1,0.1,1.4,0.4c0.5,0.5,0.8,1,0.8,1.5c0,0.5-0.2,1-0.7,1.4c-1.3,1.1-2.9,2-4.8,2.6c-1.9,0.7-3.8,1.1-5.6,1.1H1162.3z"/>
		</g>
		<g class="st0">
			<path class="st1" d="M230.5,121.2c-1.9,0-3.3-0.6-4.5-1.7c-1.2-1.2-1.7-2.7-1.7-4.5V13.5c0-1.9,0.6-3.3,1.7-4.5s2.7-1.7,4.5-1.7
				h67.7c1.7,0,3.2,0.5,4.4,1.7c1.2,1.1,1.7,2.6,1.7,4.3c0,1.7-0.6,3-1.7,4.2c-1.2,1.1-2.6,1.7-4.4,1.7h-61.4v38.8h44.5
				c1.9,0,3.3,0.6,4.5,1.7c1.2,1.2,1.7,2.6,1.7,4.2c0,1.7-0.6,3.2-1.7,4.3c-1.2,1.1-2.7,1.7-4.5,1.7h-44.5v39.5h61.4
				c1.7,0,3.2,0.5,4.4,1.7c1.2,1.1,1.7,2.5,1.7,4.2c0,1.7-0.6,3.2-1.7,4.3c-1.2,1.1-2.6,1.7-4.4,1.7h-67.7V121.2z"/>
			<path class="st1" d="M381.6,122.7c-7.9,0-15.2-1.5-22.1-4.5c-6.9-3-12.9-7.2-18.1-12.5c-5.2-5.4-9.3-11.6-12.1-18.6
				S325,72.3,325,64.1s1.4-15.6,4.3-22.7s6.9-13.3,12.1-18.6c5.1-5.3,11.2-9.5,18-12.5s14.3-4.6,22.3-4.6c7.1,0,13.5,1,19.1,3
				c5.6,2,11.2,5.3,16.5,9.7c0.9,0.7,1.4,1.4,1.7,2.3c0.2,0.8,0.2,1.6,0,2.4c-0.2,0.8-0.6,1.4-1.1,2c-0.2,1.1-0.8,1.9-1.7,2.6
				c-0.9,0.7-2,1-3.3,1c-1.3,0-2.5-0.5-3.8-1.4c-3.7-3.3-7.7-5.8-11.9-7.4c-4.3-1.6-9.4-2.4-15.5-2.4c-6,0-11.9,1.3-17.3,3.7
				c-5.4,2.5-10.1,5.9-14.2,10.1s-7.3,9.3-9.6,14.9c-2.3,5.7-3.5,11.6-3.5,18s1.1,12.6,3.5,18.3c2.3,5.7,5.5,10.6,9.6,14.9
				c4.1,4.3,8.8,7.6,14.2,10.1c5.4,2.4,11.2,3.6,17.3,3.6c5.1,0,10.1-0.9,14.7-2.6c4.7-1.7,9.1-4.2,13.4-7.5
				c1.4-1.1,2.7-1.5,4.2-1.3c1.4,0.2,2.6,0.8,3.6,1.9c1,1.1,1.6,2.4,1.6,4.2c0,0.9-0.2,1.7-0.4,2.3s-0.7,1.4-1.3,2.2
				c-5.1,4.4-10.6,7.6-16.7,9.6c-6.1,2-12.4,3-19,3L381.6,122.7z"/>
			<path class="st1" d="M500.4,122.7c-8.5,0-16.2-1.4-23.3-4.4c-7.1-2.9-13.3-7-18.4-12.2c-5.2-5.2-9.2-11.4-12.1-18.6
				c-2.8-7.2-4.2-15-4.2-23.4s1.4-16.2,4.2-23.3s6.8-13.3,12.1-18.4c5.3-5.2,11.3-9.3,18.4-12.2c7.1-2.9,14.9-4.4,23.3-4.4
				s16.2,1.4,23.3,4.4c7,2.9,13.2,7,18.4,12.2c5.3,5.2,9.3,11.3,12.1,18.4s4.2,14.9,4.2,23.3s-1.4,16.3-4.2,23.4
				c-2.8,7.2-6.9,13.3-12.1,18.6c-5.3,5.2-11.4,9.3-18.4,12.2C516.6,121.2,508.9,122.7,500.4,122.7z M500.4,111
				c6.6,0,12.7-1.2,18.3-3.6s10.4-5.7,14.6-9.9c4.1-4.2,7.3-9.2,9.6-14.9c2.2-5.7,3.3-11.8,3.3-18.4c0-6.6-1.1-12.8-3.3-18.4
				c-2.3-5.7-5.4-10.7-9.6-14.9c-4.1-4.2-9-7.5-14.6-9.9c-5.6-2.3-11.7-3.5-18.3-3.5S487.6,18.7,482,21c-5.7,2.3-10.5,5.6-14.6,9.9
				s-7.3,9.2-9.6,14.9c-2.3,5.7-3.4,11.8-3.4,18.4c0,6.6,1.1,12.8,3.4,18.4c2.3,5.7,5.5,10.7,9.6,14.9s9,7.5,14.6,9.9
				S493.8,111,500.4,111z"/>
			<path class="st1" d="M593.2,121.2c-1.7,0-3.2-0.6-4.5-1.7c-1.2-1.2-1.9-2.7-1.9-4.5V13.5c0-1.7,0.6-3.2,1.9-4.5
				c1.2-1.2,2.7-1.9,4.5-1.9s3.2,0.6,4.5,1.9c1.2,1.2,1.9,2.7,1.9,4.5v95.6h55.8c1.7,0,3.2,0.6,4.5,1.7c1.2,1.2,1.9,2.6,1.9,4.2
				c0,1.7-0.6,3.2-1.9,4.4c-1.2,1.2-2.7,1.7-4.5,1.7h-62L593.2,121.2z"/>
			<path class="st1" d="M727,122.7c-8.5,0-16.2-1.4-23.3-4.4c-7.1-2.9-13.3-7-18.4-12.2c-5.2-5.2-9.2-11.4-12.1-18.6
				c-2.8-7.2-4.2-15-4.2-23.4s1.4-16.2,4.2-23.3c2.8-7.1,6.8-13.3,12.1-18.4s11.3-9.3,18.4-12.2c7.1-2.9,14.9-4.4,23.3-4.4
				c8.5,0,16.2,1.4,23.3,4.4c7,2.9,13.2,7,18.4,12.2s9.3,11.3,12.1,18.4s4.2,14.9,4.2,23.3s-1.4,16.3-4.2,23.4
				c-2.8,7.2-6.9,13.3-12.1,18.6c-5.3,5.2-11.4,9.3-18.4,12.2C743.3,121.2,735.5,122.7,727,122.7z M727,111c6.6,0,12.7-1.2,18.3-3.6
				s10.4-5.7,14.6-9.9c4.1-4.2,7.3-9.2,9.6-14.9s3.3-11.8,3.3-18.4c0-6.6-1.1-12.8-3.3-18.4c-2.3-5.7-5.4-10.7-9.6-14.9
				c-4.1-4.2-9-7.5-14.6-9.9c-5.6-2.3-11.7-3.5-18.3-3.5c-6.6,0-12.8,1.2-18.4,3.5c-5.7,2.3-10.5,5.6-14.6,9.9s-7.3,9.2-9.6,14.9
				c-2.3,5.7-3.4,11.8-3.4,18.4c0,6.6,1.1,12.8,3.4,18.4c2.3,5.7,5.5,10.7,9.6,14.9s9,7.5,14.6,9.9S720.4,111,727,111z"/>
			<path class="st1" d="M861.9,122.7c-7.9,0-15.2-1.5-22.1-4.5c-6.9-3-12.9-7.2-18.1-12.5c-5.2-5.3-9.3-11.6-12.1-18.6
				s-4.3-14.7-4.3-22.9s1.4-15.6,4.3-22.7s6.9-13.3,12.1-18.6c5.1-5.3,11.2-9.5,18-12.5c6.9-3,14.3-4.6,22.3-4.6
				c7.1,0,13.5,1,19.1,3c5.6,2,11.2,5.3,16.5,9.7c0.9,0.7,1.4,1.4,1.7,2.3c0.2,0.8,0.2,1.6,0,2.4c-0.2,0.8-0.6,1.4-1.1,2
				c-0.2,1.1-0.8,1.9-1.7,2.6c-1,0.7-2,1-3.3,1c-1.3,0-2.6-0.5-3.7-1.4c-3.7-3.3-7.7-5.8-11.9-7.4c-4.3-1.6-9.4-2.4-15.5-2.4
				c-6,0-11.9,1.3-17.3,3.7c-5.4,2.5-10.1,5.9-14.2,10.1c-4.1,4.3-7.3,9.3-9.6,14.9s-3.4,11.6-3.4,18s1.1,12.6,3.4,18.3
				s5.5,10.6,9.6,14.9c4.1,4.3,8.8,7.6,14.2,10.1c5.4,2.4,11.2,3.6,17.3,3.6c5.1,0,10.1-0.9,14.7-2.6c4.7-1.7,9.1-4.2,13.4-7.5
				c1.4-1.1,2.7-1.5,4.2-1.3c1.4,0.2,2.6,0.8,3.6,1.9c1,1,1.6,2.4,1.6,4.2c0,0.9-0.1,1.7-0.4,2.3c-0.2,0.7-0.7,1.4-1.4,2.2
				c-5.1,4.5-10.6,7.7-16.7,9.6c-6.1,2-12.4,2.9-19,2.9L861.9,122.7z M899.4,105.6l-12.1-2.5V74.6h-22c-1.7,0-3.2-0.5-4.5-1.6
				c-1.2-1-1.8-2.4-1.8-4c0-1.6,0.6-2.9,1.8-3.9c1.2-1.1,2.7-1.6,4.5-1.6h28c1.7,0,3.2,0.6,4.4,1.7s1.7,2.7,1.7,4.5L899.4,105.6
				L899.4,105.6z"/>
			<path class="st1" d="M934.3,121.2c-1.9,0-3.3-0.6-4.5-1.7c-1.2-1.2-1.7-2.7-1.7-4.5V13.5c0-1.9,0.6-3.3,1.7-4.5
				c1.2-1.2,2.7-1.7,4.5-1.7c1.9,0,3.3,0.6,4.5,1.7c1.2,1.2,1.7,2.7,1.7,4.5v101.4c0,1.9-0.6,3.3-1.7,4.5
				C937.7,120.6,936.2,121.2,934.3,121.2L934.3,121.2z"/>
			<path class="st1" d="M1025.8,122.7c-7.9,0-15.2-1.5-22.1-4.5c-6.9-3-12.9-7.2-18.1-12.5c-5.2-5.3-9.3-11.6-12.1-18.6
				s-4.3-14.7-4.3-22.9s1.4-15.6,4.3-22.7s6.9-13.3,12.1-18.6c5.1-5.3,11.2-9.5,18-12.5c6.9-3,14.3-4.6,22.3-4.6
				c7.1,0,13.5,1,19.1,3s11.2,5.3,16.5,9.7c0.9,0.7,1.4,1.4,1.7,2.3c0.2,0.8,0.2,1.6,0,2.4c-0.2,0.8-0.6,1.4-1.1,2
				c-0.2,1.1-0.8,1.9-1.7,2.6c-1,0.7-2,1-3.3,1s-2.5-0.5-3.8-1.4c-3.7-3.3-7.7-5.8-11.9-7.4c-4.3-1.6-9.4-2.4-15.5-2.4
				c-6,0-11.9,1.3-17.3,3.7c-5.4,2.5-10.1,5.9-14.2,10.1c-4.1,4.3-7.3,9.3-9.6,14.9s-3.4,11.6-3.4,18s1.1,12.6,3.4,18.3
				s5.5,10.6,9.6,14.9c4.1,4.3,8.8,7.6,14.2,10.1c5.4,2.4,11.2,3.6,17.3,3.6c5.1,0,10.1-0.9,14.7-2.6c4.7-1.7,9.1-4.2,13.4-7.5
				c1.4-1.1,2.7-1.5,4.2-1.3c1.4,0.2,2.6,0.8,3.6,1.9c1,1,1.6,2.4,1.6,4.2c0,0.9-0.1,1.7-0.4,2.3c-0.3,0.7-0.7,1.4-1.3,2.2
				c-5.1,4.4-10.6,7.6-16.7,9.6s-12.4,3-19,3L1025.8,122.7z"/>
			<path class="st1" d="M1086.3,121.2c-2.4,0-4.2-1-5.3-3c-1.1-2-1.3-4-0.4-6l42.3-100.7c1.3-2.8,3.3-4.2,6.1-4.2
				c2.9,0,4.8,1.4,5.9,4.2l42.4,100.8c1,2.1,0.8,4.2-0.4,6c-1.2,1.9-2.9,2.9-5.2,2.9c-1.3,0-2.4-0.4-3.5-1c-1.1-0.7-1.9-1.6-2.5-2.7
				L1127,22.3h4.4l-39.4,95.2c-0.5,1.3-1.3,2.2-2.3,2.9C1088.5,121,1087.4,121.3,1086.3,121.2L1086.3,121.2z M1095.3,94.7l4.8-10.7
				h58.5l5,10.7H1095.3z"/>
		</g>
		<g>
			<circle class="st2" cx="98.8" cy="101.4" r="93.6"/>
			<g id="m0qVJX.tif">
				<path class="st3" d="M110,8.6c-0.1,0.4-0.3,0.6-0.4,0.9c-6,16.6-15.2,31.2-27.6,43.7c-4.6,4.7-9.6,8.7-14.9,12.5
					c-1.2,0.8-2.1,1.9-1.9,3.5c0.1,0.7,0.2,1.4,0.3,2.1c1.8,9.9,4.3,19.6,8.6,28.7c0.6,1.2,1.3,2.4,2.2,3.4c4.5,4.9,7.6,10.6,9.3,17
					c3.5,12.8,4.3,26,2.7,39.2c-1.1,9.6-2.8,19-4.2,28.5c-0.3,1.9-0.6,3.8-0.9,5.7c7.2,1.3,14.3,1.6,21.5,1.2c0-0.4,0-0.6,0-0.8
					c-0.6-3.6-1.3-7.3-1.9-10.9c-2-12.2-4.2-24.3-5-36.6c-0.5-8.2-0.2-16.4,1.6-24.5c2.3-10.2,7.5-18.6,15.1-25.8
					c5.3-5,9.8-10.4,12.8-17c5.4-11.8,9-24.1,11.5-36.8c1.4-7.3,2.6-14.6,4-22c0.2-1.4-0.1-1.8-1.2-2.3C131.6,13.1,121.2,10,110,8.6
					L110,8.6z M174.2,49.4c-4.3-0.2-8.3,0.3-12.3,1.4c-6.6,1.8-12.5,5-18.5,8.1c-1.4,0.7-2.1,1.8-2.6,3.2c-1.3,3.9-2.5,7.8-3.9,11.6
					c-3.6,9.8-8.7,18.7-16.5,25.9c-1.8,1.6-3.4,3.5-5,5.4c-4.7,5.5-8.2,11.6-9.6,18.9c-2.1,10.7-1.6,21.4-0.4,32.1
					c0.9,7.6,2.1,15.2,3.3,22.7c0.8,5.1,1.9,10.3,2.9,15.6c4.1-0.8,8.1-1.7,12.2-2.5c-0.3-0.8-0.5-1.5-0.7-2.1
					c-4.4-13.3-6.6-26.7-4.3-40.8c1.7-10.4,5.8-19.8,13-27.6c7.5-8.2,16.9-13.6,27.3-17.4c7.9-2.9,16.2-4.5,24.5-5.5
					c2.2-0.2,4.4-0.5,6.6-0.8c0.7-0.1,1.5,0,1.6,1c0.2,1.7,0.2,3.5,0.4,5.2c-5.7,1-11.4,1.8-17,2.8c-9,1.6-17.6,4.3-25.6,8.8
					c-8.1,4.7-14.7,10.9-19.1,19.2c-0.5,1.1-1,2.1-1.6,3.6c0.8-0.4,1.3-0.5,1.7-0.7c2.5-1,5-2.1,7.5-3c6.7-2.4,13.7-3.5,21-2.7
					c8.7,1,15.9,5,22,11c0.4,0.4,0.6,1,1,1.6c16.2-30.7,13.3-69.7-7.1-97.2c-0.2,0.8-0.5,1.5-0.7,2.3L174.2,49.4z M5.2,98.4
					c0.9,0.2,1.4,0.3,1.9,0.4c13.4,2.3,25.6,7.3,36.3,15.8c14.1,11.1,21.1,25.7,21.8,43.5c0.4,9.6-1.1,18.9-3.5,28
					c-0.2,0.8,0,1.2,0.7,1.4c2.7,1,5.4,2.1,8.2,3c2,0.7,4.1,1.2,6.3,1.8c0.1-0.4,0.1-0.5,0.2-0.7c1-6,2-12,2.9-18
					c1.8-11.9,3-23.8,2-35.8c-0.7-8.5-2.4-16.7-6.4-24.4c-2.2-4.2-5.4-7.3-9.7-9.5c-3.3-1.6-6.6-3.5-9.7-5.6
					c-9.7-6.7-16.8-15.6-22.3-26c-3.8-7.1-9.4-11-17.2-12.5c-1.1-0.2-1.6,0-2.1,1C11,68.5,8.3,76.5,6.9,84.9
					c-0.7,4.4-1.1,8.8-1.6,13.3L5.2,98.4z M178,148.5c-1.8-1.4-3.5-2.9-5.1-4.2c-5.9-4.7-12.7-6.9-20.2-6.5
					c-9.3,0.5-17.6,3.8-25.1,9c-0.8,0.6-1.6,1.7-1.8,2.7c-0.5,1.9-0.7,3.8-0.8,5.7c-0.6,7.9,0.2,15.7,2.1,23.3c0.9,3.7,2,7.3,3.1,11
					c11.5-3.6,25-12.1,34.7-21.7c6.4-6.4,11.8-13.6,15.9-21.7C179.9,146.8,179,147.6,178,148.5z M57.8,17.5c0,0-0.4,0.1-0.5,0.1
					c-11.3,5.6-21,13.2-29.2,22.7c-0.3,0.4-0.4,1.1-0.2,1.5c4.5,13.6,10.1,26.6,18.9,38c4.5,5.9,9.7,11,16,14.9
					c0.6,0.4,1.2,0.7,2.1,1.1C55.9,70.2,55,44.1,57.8,17.5L57.8,17.5z M55.3,184.1c0.4-1.6,0.8-3.1,1.1-4.7c1.9-8.6,2.6-17.2,1.7-26
					c-0.4-3.2-1.3-5.8-4.2-7.5c-1.2-0.7-2.3-1.6-3.5-2.3c-11-6.7-22.5-7.8-34.4-2.3c-1.1,0.5-1.3,1-0.7,2.1
					c8.8,17.2,21.7,30.5,38.6,39.9C54.3,183.6,54.7,183.7,55.3,184.1L55.3,184.1z M102.8,8c-6.2-0.3-12.4,0-18.4,1
					c-6.3,1-12.5,2.6-18.5,5c-0.4,0.2-0.9,0.7-0.9,1c-0.5,4.8-1.1,9.6-1.3,14.4c-0.2,8.4-0.1,16.7,0,25.1c0,1.7,0.3,3.3,0.4,5.1
					C82.7,46.4,94.7,28.7,102.8,8L102.8,8z M5.6,105.2c-0.6,6.4,3.9,27.2,6.7,30.8c13.7-6.9,27.3-6.1,41,1.2
					c-2.6-5.2-5.6-9.6-9.4-13.3c-6.4-6.4-14.1-10.7-22.4-14.1C16.3,107.7,11,106.2,5.6,105.2L5.6,105.2z M171.8,42.8
					c-6.6-8.1-14-14.7-22.6-20.2c-1.7,9.4-3.4,18.7-5.1,28.2C153.1,46.6,161.7,42.7,171.8,42.8L171.8,42.8z M22.7,47.2
					c-1.6,2.3-2.9,4.4-4.2,6.5c2.3,0.4,4.3,0.8,6.6,1.2C24.3,52.3,23.5,50,22.7,47.2z"/>
			</g>
		</g>
	</g>
</g>
</svg>
