<?xml version="1.0" encoding="UTF-8"?>
<svg id="Calque_2" data-name="Calque 2" xmlns="http://www.w3.org/2000/svg" viewBox="0 0 196.43 31.69">
  <defs>
    <style>
      .cls-1 {
        fill: #ef7b3c;
      }

      .cls-2 {
        fill: #fff;
      }
    </style>
  </defs>
  <g id="Calque_5" data-name="Calque 5">
    <g>
      <g>
        <path class="cls-2" d="m38.01,31.4c-.1,0-.19-.04-.26-.1-.07-.07-.11-.16-.11-.27v-6.68c0-.1.04-.19.11-.26s.16-.11.26-.11.19.04.26.11c.07.07.11.16.11.26v6.35h3.73c.1,0,.19.03.26.1.07.07.11.15.11.25s-.04.19-.11.25c-.07.07-.16.1-.26.1h-4.1Z"/>
        <path class="cls-2" d="m42.96,26.36c-.08,0-.14-.03-.2-.1-.05-.07-.06-.15-.02-.24.09-.22.15-.41.17-.56.02-.15.02-.28,0-.39-.01-.11-.03-.22-.06-.32-.03-.1-.04-.22-.04-.34,0-.15.05-.27.14-.37s.21-.14.35-.14c.16,0,.29.07.38.2.09.14.14.32.14.56,0,.15-.03.31-.09.5-.06.19-.13.38-.22.56-.09.18-.18.33-.29.46-.1.12-.2.18-.29.18Z"/>
        <path class="cls-2" d="m47.54,31.45c-.52,0-.97-.11-1.37-.34-.4-.22-.71-.54-.94-.94-.23-.4-.34-.85-.34-1.37s.11-.98.32-1.37c.21-.4.51-.71.88-.94.38-.23.81-.34,1.3-.34s.9.11,1.26.33c.36.22.64.52.83.91.2.39.3.83.3,1.32,0,.1-.03.18-.1.24s-.15.09-.25.09h-4.06v-.61h4.13l-.41.29c0-.37-.06-.7-.2-.99-.14-.29-.34-.52-.6-.68-.26-.16-.57-.25-.92-.25s-.68.09-.96.26-.49.41-.63.71-.22.64-.22,1.03.08.73.25,1.03c.17.3.4.53.69.7.29.17.63.26,1.01.26.23,0,.46-.04.69-.12s.42-.18.56-.3c.07-.06.15-.09.24-.09.09,0,.17.02.23.07.08.08.13.16.13.25s-.03.17-.11.23c-.21.18-.48.33-.8.44s-.64.18-.94.18Zm-.26-6.03c-.1,0-.19-.04-.26-.11-.07-.07-.11-.16-.11-.26s.03-.18.09-.25l1.08-1.07c.07-.07.16-.1.26-.1.11,0,.2.04.27.11.07.07.11.16.11.27,0,.04,0,.09-.02.13-.02.04-.04.08-.08.11l-1.07,1.07c-.06.06-.15.09-.25.09Z"/>
        <path class="cls-2" d="m53.17,31.45c-.5,0-.95-.12-1.34-.35-.39-.23-.7-.55-.93-.95-.23-.4-.34-.85-.34-1.35s.11-.96.32-1.36c.22-.4.51-.71.89-.95.38-.23.81-.35,1.3-.35.39,0,.75.08,1.07.23.33.15.62.38.86.68.07.08.1.16.08.24-.02.09-.07.16-.16.22-.07.05-.15.07-.23.05s-.16-.06-.22-.14c-.37-.42-.83-.63-1.39-.63-.36,0-.67.09-.94.26s-.48.41-.63.7-.22.64-.22,1.03.08.72.24,1.02.38.53.67.7c.29.17.61.26.98.26.25,0,.48-.03.68-.1.21-.07.39-.17.55-.31.08-.06.16-.1.24-.1.08,0,.16.02.23.08.08.07.12.15.13.24,0,.09-.02.17-.09.23-.46.42-1.04.64-1.74.64Z"/>
        <path class="cls-2" d="m58.9,31.45c-.51,0-.96-.11-1.37-.34-.4-.23-.71-.54-.94-.94-.23-.4-.34-.85-.34-1.36s.11-.97.34-1.37c.23-.4.54-.71.94-.94.4-.23.86-.34,1.37-.34s.96.11,1.36.34c.4.23.71.54.94.94.23.4.35.86.35,1.37,0,.51-.12.96-.35,1.36-.23.4-.55.71-.94.94-.4.23-.85.34-1.36.34Zm0-.67c.37,0,.7-.09.99-.26.29-.17.52-.41.69-.7s.25-.64.25-1.02-.08-.72-.25-1.02c-.17-.3-.39-.54-.69-.71-.29-.17-.62-.26-.99-.26s-.7.09-.99.26c-.29.17-.52.41-.69.71-.17.3-.25.64-.25,1.02s.08.72.25,1.02.4.53.69.7c.29.17.62.26.99.26Z"/>
        <path class="cls-2" d="m64.11,31.4c-.25,0-.48-.07-.68-.21s-.36-.33-.47-.58-.17-.53-.17-.86v-5.42c0-.11.03-.19.1-.26.07-.07.15-.1.26-.1s.2.03.26.1c.07.07.1.15.1.26v5.42c0,.27.06.49.17.67s.25.26.42.26h.24c.1,0,.17.03.23.1.06.07.09.15.09.26s-.04.2-.12.26c-.08.07-.18.1-.31.1h-.12Z"/>
        <path class="cls-2" d="m67.75,31.45c-.52,0-.97-.11-1.37-.34-.4-.22-.71-.54-.94-.94-.23-.4-.34-.85-.34-1.37s.11-.98.32-1.37c.21-.4.51-.71.88-.94.38-.23.81-.34,1.3-.34s.9.11,1.26.33c.36.22.64.52.83.91.2.39.3.83.3,1.32,0,.1-.03.18-.1.24s-.15.09-.25.09h-4.06v-.61h4.13l-.41.29c0-.37-.06-.7-.2-.99-.14-.29-.34-.52-.6-.68-.26-.16-.57-.25-.92-.25s-.68.09-.96.26-.49.41-.63.71-.22.64-.22,1.03.08.73.25,1.03c.17.3.4.53.69.7.29.17.63.26,1.01.26.23,0,.46-.04.69-.12s.42-.18.56-.3c.07-.06.15-.09.24-.09.09,0,.17.02.23.07.08.08.13.16.13.25s-.03.17-.11.23c-.21.18-.48.33-.8.44s-.64.18-.94.18Z"/>
        <path class="cls-2" d="m76.42,31.45c-.5,0-.95-.12-1.36-.35-.4-.23-.72-.55-.95-.95-.23-.4-.35-.85-.35-1.36s.11-.95.34-1.35c.23-.4.53-.71.92-.95.39-.23.83-.35,1.32-.35.43,0,.81.09,1.15.27.34.18.62.42.83.72v-2.79c0-.11.03-.2.1-.27.07-.07.16-.1.27-.1s.2.03.27.1c.07.07.11.16.11.27v4.48c-.01.49-.14.94-.37,1.33-.23.4-.55.71-.95.94-.4.23-.84.34-1.34.34Zm0-.67c.37,0,.7-.09.99-.26.29-.17.52-.41.69-.71.17-.3.25-.64.25-1.02s-.08-.71-.25-1.01c-.17-.3-.4-.54-.69-.71-.29-.17-.62-.26-.99-.26s-.69.09-.98.26c-.29.17-.52.41-.7.71-.17.3-.26.64-.26,1.01s.09.72.26,1.02c.17.3.4.53.7.71.29.17.62.26.98.26Z"/>
        <path class="cls-2" d="m83.16,31.45c-.52,0-.97-.11-1.37-.34-.4-.22-.71-.54-.94-.94-.23-.4-.34-.85-.34-1.37s.11-.98.32-1.37c.21-.4.51-.71.88-.94.38-.23.81-.34,1.3-.34s.9.11,1.26.33c.36.22.64.52.83.91.2.39.3.83.3,1.32,0,.1-.03.18-.1.24s-.15.09-.25.09h-4.06v-.61h4.13l-.41.29c0-.37-.06-.7-.2-.99-.14-.29-.34-.52-.6-.68-.26-.16-.57-.25-.92-.25s-.68.09-.96.26-.49.41-.63.71-.22.64-.22,1.03.08.73.25,1.03c.17.3.4.53.69.7.29.17.63.26,1.01.26.23,0,.46-.04.69-.12s.42-.18.56-.3c.07-.06.15-.09.24-.09.09,0,.17.02.23.07.08.08.13.16.13.25s-.03.17-.11.23c-.21.18-.48.33-.8.44s-.64.18-.94.18Z"/>
        <path class="cls-2" d="m90.57,31.4c-.25,0-.48-.07-.68-.21s-.36-.33-.47-.58-.17-.53-.17-.86v-5.42c0-.11.03-.19.1-.26.07-.07.15-.1.26-.1s.2.03.26.1c.07.07.1.15.1.26v5.42c0,.27.06.49.17.67s.25.26.42.26h.24c.1,0,.17.03.23.1.06.07.09.15.09.26s-.04.2-.12.26c-.08.07-.18.1-.31.1h-.12Z"/>
        <path class="cls-2" d="m94.15,31.45c-.49,0-.93-.12-1.32-.35-.39-.23-.7-.55-.92-.95-.23-.4-.34-.85-.34-1.35s.12-.96.35-1.36c.23-.4.55-.71.95-.95.4-.23.85-.35,1.36-.35s.95.12,1.35.35c.4.23.71.55.94.95.23.4.35.85.36,1.36l-.3.23c0,.46-.11.87-.32,1.23-.21.36-.5.65-.87.86s-.78.32-1.25.32Zm.08-.67c.37,0,.7-.09.99-.26.29-.17.52-.41.69-.71s.25-.64.25-1.01-.08-.72-.25-1.02c-.17-.3-.4-.53-.69-.71-.29-.17-.62-.26-.99-.26s-.69.09-.98.26c-.29.17-.52.41-.7.71-.17.3-.26.64-.26,1.02s.09.71.26,1.01.4.54.7.71c.29.17.62.26.98.26Zm2.28.62c-.11,0-.2-.03-.27-.1s-.1-.15-.1-.26v-1.62l.18-.75.56.14v2.23c0,.11-.04.2-.11.26-.07.07-.16.1-.27.1Z"/>
        <path class="cls-2" d="m100.78,27.03c-.1,0-.18-.03-.24-.09-.06-.06-.1-.13-.1-.22,0-.09.03-.17.1-.23.06-.06.14-.09.24-.09h2.43c.09,0,.17.03.24.09.06.06.1.14.1.23,0,.09-.03.16-.1.22-.06.06-.14.09-.24.09h-2.43Zm2.38,4.37c-.34,0-.64-.08-.9-.24-.26-.16-.47-.38-.62-.65-.15-.28-.23-.59-.23-.95v-4.64c0-.11.03-.2.1-.27.07-.07.15-.1.26-.1s.2.04.27.1c.07.07.1.16.1.27v4.64c0,.32.1.59.29.79.19.21.44.31.74.31h.26c.1,0,.18.04.25.1s.1.16.1.27-.04.2-.12.26c-.08.07-.17.1-.29.1h-.2Z"/>
        <path class="cls-2" d="m105.31,31.4c-.11,0-.2-.03-.27-.09s-.09-.15-.09-.27v-4.47c0-.11.03-.2.09-.27s.15-.09.27-.09.2.03.27.09c.06.06.09.15.09.27v4.47c0,.11-.03.2-.09.27-.06.06-.15.09-.27.09Zm-.06-3.2c.02-.39.12-.74.31-1.05s.43-.55.73-.73c.3-.18.64-.27,1.01-.27.29,0,.52.04.68.12s.22.2.18.36c-.03.09-.07.16-.13.19-.06.03-.13.04-.22.04-.09,0-.18-.01-.29-.02-.36-.03-.67,0-.95.11-.28.1-.5.26-.66.48-.16.21-.24.47-.24.77h-.42Z"/>
        <path class="cls-2" d="m111.24,31.45c-.49,0-.93-.12-1.32-.35-.39-.23-.7-.55-.92-.95-.23-.4-.34-.85-.34-1.35s.12-.96.35-1.36c.23-.4.55-.71.95-.95.4-.23.85-.35,1.36-.35s.95.12,1.35.35c.4.23.71.55.94.95.23.4.35.85.36,1.36l-.3.23c0,.46-.11.87-.32,1.23-.21.36-.5.65-.87.86s-.78.32-1.25.32Zm.08-.67c.37,0,.7-.09.99-.26.29-.17.52-.41.69-.71s.25-.64.25-1.01-.08-.72-.25-1.02c-.17-.3-.4-.53-.69-.71-.29-.17-.62-.26-.99-.26s-.69.09-.98.26c-.29.17-.52.41-.7.71-.17.3-.26.64-.26,1.02s.09.71.26,1.01.4.54.7.71c.29.17.62.26.98.26Zm2.28.62c-.11,0-.2-.03-.27-.1s-.1-.15-.1-.26v-1.62l.18-.75.56.14v2.23c0,.11-.04.2-.11.26-.07.07-.16.1-.27.1Z"/>
        <path class="cls-2" d="m115.77,31.4c-.12,0-.21-.03-.27-.1-.07-.07-.1-.15-.1-.26v-4.46c0-.11.03-.2.1-.27.07-.07.16-.1.27-.1.11,0,.2.03.26.1.07.07.1.16.1.27v4.46c0,.11-.03.2-.1.26-.07.07-.15.1-.26.1Zm4.1,0c-.11,0-.2-.04-.27-.1-.07-.07-.1-.16-.1-.26v-2.47c0-.39-.08-.72-.22-.97-.15-.25-.35-.44-.61-.57s-.55-.19-.87-.19-.59.06-.84.18c-.25.12-.45.29-.6.49s-.22.45-.22.71h-.52c.01-.4.12-.76.32-1.07.2-.31.47-.56.81-.74.34-.18.71-.27,1.13-.27.45,0,.86.09,1.21.28.36.19.64.46.84.82.21.36.31.8.31,1.32v2.47c0,.1-.03.19-.1.26s-.16.1-.26.1Z"/>
        <path class="cls-2" d="m123.68,31.45c-.38,0-.75-.06-1.12-.19s-.67-.32-.9-.57c-.07-.08-.1-.16-.09-.26.01-.1.06-.18.14-.25.09-.06.18-.09.28-.08s.17.05.24.12c.15.18.36.31.61.41.25.09.53.14.83.14.47,0,.81-.08,1.02-.24.21-.16.32-.36.32-.58,0-.23-.11-.42-.32-.56-.22-.15-.57-.26-1.07-.35-.64-.1-1.11-.28-1.41-.53-.3-.25-.45-.55-.45-.9,0-.32.09-.59.26-.81.17-.22.4-.38.69-.48.29-.11.6-.16.95-.16.43,0,.79.07,1.1.22s.56.34.75.59c.06.08.09.17.08.26s-.06.16-.15.22c-.08.04-.16.06-.26.04s-.18-.06-.25-.14c-.16-.18-.34-.32-.55-.4-.21-.09-.45-.13-.73-.13-.35,0-.63.07-.84.21s-.31.32-.31.54c0,.15.04.27.12.38.08.11.22.2.41.29s.47.15.82.21c.48.08.85.19,1.13.34.28.15.47.32.59.52.12.2.18.42.18.65,0,.3-.09.56-.26.78-.18.22-.42.4-.73.53s-.66.19-1.06.19Z"/>
        <path class="cls-2" d="m127.52,25.22c-.14,0-.26-.05-.36-.15-.1-.1-.15-.22-.15-.37,0-.16.05-.28.16-.38.1-.09.23-.14.37-.14s.25.05.36.14c.1.09.16.22.16.38,0,.15-.05.27-.15.37-.1.1-.23.15-.37.15Zm0,6.18c-.11,0-.21-.03-.27-.1-.07-.07-.1-.16-.1-.27v-4.46c0-.11.03-.2.1-.27.07-.07.16-.1.27-.1s.2.03.26.1c.07.07.1.16.1.27v4.46c0,.11-.03.2-.1.27-.07.07-.15.1-.26.1Z"/>
        <path class="cls-2" d="m129.43,27.03c-.1,0-.18-.03-.24-.09-.06-.06-.1-.13-.1-.22,0-.09.03-.17.1-.23.06-.06.14-.09.24-.09h2.43c.09,0,.17.03.24.09.06.06.1.14.1.23,0,.09-.03.16-.1.22-.06.06-.14.09-.24.09h-2.43Zm2.38,4.37c-.34,0-.64-.08-.9-.24-.26-.16-.47-.38-.62-.65-.15-.28-.23-.59-.23-.95v-4.64c0-.11.03-.2.1-.27.07-.07.15-.1.26-.1s.2.04.27.1c.07.07.1.16.1.27v4.64c0,.32.1.59.29.79.19.21.44.31.74.31h.26c.1,0,.18.04.25.1s.1.16.1.27-.04.2-.12.26c-.08.07-.17.1-.29.1h-.2Z"/>
        <path class="cls-2" d="m134.11,25.22c-.14,0-.26-.05-.36-.15-.1-.1-.15-.22-.15-.37,0-.16.05-.28.16-.38.1-.09.23-.14.37-.14s.25.05.36.14c.1.09.16.22.16.38,0,.15-.05.27-.15.37-.1.1-.23.15-.37.15Zm0,6.18c-.11,0-.21-.03-.27-.1-.07-.07-.1-.16-.1-.27v-4.46c0-.11.03-.2.1-.27.07-.07.16-.1.27-.1s.2.03.26.1c.07.07.1.16.1.27v4.46c0,.11-.03.2-.1.27-.07.07-.15.1-.26.1Z"/>
        <path class="cls-2" d="m138.73,31.45c-.51,0-.96-.11-1.37-.34-.4-.23-.71-.54-.94-.94-.23-.4-.34-.85-.34-1.36s.11-.97.34-1.37c.23-.4.54-.71.94-.94.4-.23.86-.34,1.37-.34s.96.11,1.36.34c.4.23.71.54.94.94.23.4.35.86.35,1.37,0,.51-.12.96-.35,1.36-.23.4-.55.71-.94.94-.4.23-.85.34-1.36.34Zm0-.67c.37,0,.7-.09.99-.26.29-.17.52-.41.69-.7s.25-.64.25-1.02-.08-.72-.25-1.02c-.17-.3-.39-.54-.69-.71-.29-.17-.62-.26-.99-.26s-.7.09-.99.26c-.29.17-.52.41-.69.71-.17.3-.25.64-.25,1.02s.08.72.25,1.02.4.53.69.7c.29.17.62.26.99.26Z"/>
        <path class="cls-2" d="m143.19,31.4c-.12,0-.21-.03-.27-.1-.07-.07-.1-.15-.1-.26v-4.46c0-.11.03-.2.1-.27.07-.07.16-.1.27-.1.11,0,.2.03.26.1.07.07.1.16.1.27v4.46c0,.11-.03.2-.1.26-.07.07-.15.1-.26.1Zm4.1,0c-.11,0-.2-.04-.27-.1-.07-.07-.1-.16-.1-.26v-2.47c0-.39-.08-.72-.22-.97-.15-.25-.35-.44-.61-.57s-.55-.19-.87-.19-.59.06-.84.18c-.25.12-.45.29-.6.49s-.22.45-.22.71h-.52c.01-.4.12-.76.32-1.07.2-.31.47-.56.81-.74.34-.18.71-.27,1.13-.27.45,0,.86.09,1.21.28.36.19.64.46.84.82.21.36.31.8.31,1.32v2.47c0,.1-.03.19-.1.26s-.16.1-.26.1Z"/>
        <path class="cls-2" d="m152.43,31.4c-.11,0-.2-.03-.27-.09s-.09-.15-.09-.27v-4.47c0-.11.03-.2.09-.27s.15-.09.27-.09.2.03.27.09c.06.06.09.15.09.27v4.47c0,.11-.03.2-.09.27-.06.06-.15.09-.27.09Zm-.06-3.2c.02-.39.12-.74.31-1.05s.43-.55.73-.73c.3-.18.64-.27,1.01-.27.29,0,.52.04.68.12s.22.2.18.36c-.03.09-.07.16-.13.19-.06.03-.13.04-.22.04-.09,0-.18-.01-.29-.02-.36-.03-.67,0-.95.11-.28.1-.5.26-.66.48-.16.21-.24.47-.24.77h-.42Z"/>
        <path class="cls-2" d="m158.43,31.45c-.52,0-.97-.11-1.37-.34-.4-.22-.71-.54-.94-.94-.23-.4-.34-.85-.34-1.37s.11-.98.32-1.37c.21-.4.51-.71.88-.94.38-.23.81-.34,1.3-.34s.9.11,1.26.33c.36.22.64.52.83.91.2.39.3.83.3,1.32,0,.1-.03.18-.1.24s-.15.09-.25.09h-4.06v-.61h4.13l-.41.29c0-.37-.06-.7-.2-.99-.14-.29-.34-.52-.6-.68-.26-.16-.57-.25-.92-.25s-.68.09-.96.26-.49.41-.63.71-.22.64-.22,1.03.08.73.25,1.03c.17.3.4.53.69.7.29.17.63.26,1.01.26.23,0,.46-.04.69-.12s.42-.18.56-.3c.07-.06.15-.09.24-.09.09,0,.17.02.23.07.08.08.13.16.13.25s-.03.17-.11.23c-.21.18-.48.33-.8.44s-.64.18-.94.18Zm-.26-6.03c-.1,0-.19-.04-.26-.11-.07-.07-.11-.16-.11-.26s.03-.18.09-.25l1.08-1.07c.07-.07.16-.1.26-.1.11,0,.2.04.27.11.07.07.11.16.11.27,0,.04,0,.09-.02.13-.02.04-.04.08-.08.11l-1.07,1.07c-.06.06-.15.09-.25.09Z"/>
        <path class="cls-2" d="m163.74,31.45c-.38,0-.75-.06-1.12-.19s-.67-.32-.9-.57c-.07-.08-.1-.16-.09-.26.01-.1.06-.18.14-.25.09-.06.18-.09.28-.08s.17.05.24.12c.15.18.36.31.61.41.25.09.53.14.83.14.47,0,.81-.08,1.02-.24.21-.16.32-.36.32-.58,0-.23-.11-.42-.32-.56-.22-.15-.57-.26-1.07-.35-.64-.1-1.11-.28-1.41-.53-.3-.25-.45-.55-.45-.9,0-.32.09-.59.26-.81.17-.22.4-.38.69-.48.29-.11.6-.16.95-.16.43,0,.79.07,1.1.22s.56.34.75.59c.06.08.09.17.08.26s-.06.16-.15.22c-.08.04-.16.06-.26.04s-.18-.06-.25-.14c-.16-.18-.34-.32-.55-.4-.21-.09-.45-.13-.73-.13-.35,0-.63.07-.84.21s-.31.32-.31.54c0,.15.04.27.12.38.08.11.22.2.41.29s.47.15.82.21c.48.08.85.19,1.13.34.28.15.47.32.59.52.12.2.18.42.18.65,0,.3-.09.56-.26.78-.18.22-.42.4-.73.53s-.66.19-1.06.19Z"/>
        <path class="cls-2" d="m167.58,25.22c-.14,0-.26-.05-.36-.15-.1-.1-.15-.22-.15-.37,0-.16.05-.28.16-.38.1-.09.23-.14.37-.14s.25.05.36.14c.1.09.16.22.16.38,0,.15-.05.27-.15.37-.1.1-.23.15-.37.15Zm0,6.18c-.11,0-.21-.03-.27-.1-.07-.07-.1-.16-.1-.27v-4.46c0-.11.03-.2.1-.27.07-.07.16-.1.27-.1s.2.03.26.1c.07.07.1.16.1.27v4.46c0,.11-.03.2-.1.27-.07.07-.15.1-.26.1Z"/>
        <path class="cls-2" d="m170.95,31.4c-.25,0-.48-.07-.68-.21s-.36-.33-.47-.58-.17-.53-.17-.86v-5.42c0-.11.03-.19.1-.26.07-.07.15-.1.26-.1s.2.03.26.1c.07.07.1.15.1.26v5.42c0,.27.06.49.17.67s.25.26.42.26h.24c.1,0,.17.03.23.1.06.07.09.15.09.26s-.04.2-.12.26c-.08.07-.18.1-.31.1h-.12Z"/>
        <path class="cls-2" d="m173.03,25.22c-.14,0-.26-.05-.36-.15-.1-.1-.15-.22-.15-.37,0-.16.05-.28.16-.38.1-.09.23-.14.37-.14s.25.05.36.14c.1.09.16.22.16.38,0,.15-.05.27-.15.37-.1.1-.23.15-.37.15Zm0,6.18c-.11,0-.21-.03-.27-.1-.07-.07-.1-.16-.1-.27v-4.46c0-.11.03-.2.1-.27.07-.07.16-.1.27-.1s.2.03.26.1c.07.07.1.16.1.27v4.46c0,.11-.03.2-.1.27-.07.07-.15.1-.26.1Z"/>
        <path class="cls-2" d="m177.64,31.45c-.52,0-.97-.11-1.37-.34-.4-.22-.71-.54-.94-.94-.23-.4-.34-.85-.34-1.37s.11-.98.32-1.37c.21-.4.51-.71.88-.94.38-.23.81-.34,1.3-.34s.9.11,1.26.33c.36.22.64.52.83.91.2.39.3.83.3,1.32,0,.1-.03.18-.1.24s-.15.09-.25.09h-4.06v-.61h4.13l-.41.29c0-.37-.06-.7-.2-.99-.14-.29-.34-.52-.6-.68-.26-.16-.57-.25-.92-.25s-.68.09-.96.26-.49.41-.63.71-.22.64-.22,1.03.08.73.25,1.03c.17.3.4.53.69.7.29.17.63.26,1.01.26.23,0,.46-.04.69-.12s.42-.18.56-.3c.07-.06.15-.09.24-.09.09,0,.17.02.23.07.08.08.13.16.13.25s-.03.17-.11.23c-.21.18-.48.33-.8.44s-.64.18-.94.18Z"/>
        <path class="cls-2" d="m181.5,31.4c-.12,0-.21-.03-.27-.1-.07-.07-.1-.15-.1-.26v-4.46c0-.11.03-.2.1-.27.07-.07.16-.1.27-.1.11,0,.2.03.26.1.07.07.1.16.1.27v4.46c0,.11-.03.2-.1.26-.07.07-.15.1-.26.1Zm4.1,0c-.11,0-.2-.04-.27-.1-.07-.07-.1-.16-.1-.26v-2.47c0-.39-.08-.72-.22-.97-.15-.25-.35-.44-.61-.57s-.55-.19-.87-.19-.59.06-.84.18c-.25.12-.45.29-.6.49s-.22.45-.22.71h-.52c.01-.4.12-.76.32-1.07.2-.31.47-.56.81-.74.34-.18.71-.27,1.13-.27.45,0,.86.09,1.21.28.36.19.64.46.84.82.21.36.31.8.31,1.32v2.47c0,.1-.03.19-.1.26s-.16.1-.26.1Z"/>
        <path class="cls-2" d="m187.26,27.03c-.1,0-.18-.03-.24-.09-.06-.06-.1-.13-.1-.22,0-.09.03-.17.1-.23.06-.06.14-.09.24-.09h2.43c.09,0,.17.03.24.09.06.06.1.14.1.23,0,.09-.03.16-.1.22-.06.06-.14.09-.24.09h-2.43Zm2.38,4.37c-.34,0-.64-.08-.9-.24-.26-.16-.47-.38-.62-.65-.15-.28-.23-.59-.23-.95v-4.64c0-.11.03-.2.1-.27.07-.07.15-.1.26-.1s.2.04.27.1c.07.07.1.16.1.27v4.64c0,.32.1.59.29.79.19.21.44.31.74.31h.26c.1,0,.18.04.25.1s.1.16.1.27-.04.2-.12.26c-.08.07-.17.1-.29.1h-.2Z"/>
        <path class="cls-2" d="m193.8,31.45c-.52,0-.97-.11-1.37-.34-.4-.22-.71-.54-.94-.94-.23-.4-.34-.85-.34-1.37s.11-.98.32-1.37c.21-.4.51-.71.88-.94.38-.23.81-.34,1.3-.34s.9.11,1.26.33c.36.22.64.52.83.91.2.39.3.83.3,1.32,0,.1-.03.18-.1.24s-.15.09-.25.09h-4.06v-.61h4.13l-.41.29c0-.37-.06-.7-.2-.99-.14-.29-.34-.52-.6-.68-.26-.16-.57-.25-.92-.25s-.68.09-.96.26-.49.41-.63.71-.22.64-.22,1.03.08.73.25,1.03c.17.3.4.53.69.7.29.17.63.26,1.01.26.23,0,.46-.04.69-.12s.42-.18.56-.3c.07-.06.15-.09.24-.09.09,0,.17.02.23.07.08.08.13.16.13.25s-.03.17-.11.23c-.21.18-.48.33-.8.44s-.64.18-.94.18Z"/>
      </g>
      <g>
        <path class="cls-2" d="m37.73,19.34c-.31,0-.56-.1-.76-.29-.2-.2-.29-.45-.29-.76V1.29c0-.31.1-.56.29-.76s.45-.29.76-.29h11.34c.29,0,.54.09.73.28.2.19.29.43.29.72,0,.28-.1.51-.29.7-.2.19-.44.28-.73.28h-10.29v6.5h7.46c.31,0,.56.1.76.29.2.2.29.43.29.71,0,.29-.1.53-.29.72-.2.19-.45.28-.76.28h-7.46v6.62h10.29c.29,0,.54.09.73.28.2.19.29.42.29.7,0,.29-.1.53-.29.72-.2.19-.44.28-.73.28h-11.34Z"/>
        <path class="cls-2" d="m63.04,19.58c-1.32,0-2.55-.25-3.7-.76-1.15-.5-2.16-1.21-3.03-2.1-.87-.9-1.55-1.94-2.03-3.12-.48-1.18-.72-2.46-.72-3.83s.24-2.62.72-3.8c.48-1.18,1.15-2.22,2.02-3.11.86-.89,1.87-1.59,3.02-2.1s2.39-.77,3.73-.77c1.19,0,2.26.17,3.2.5s1.87.88,2.76,1.63c.15.11.24.24.28.38.04.14.04.27,0,.4-.04.13-.1.24-.18.34-.03.18-.13.32-.28.43-.15.11-.34.16-.55.16s-.42-.08-.64-.24c-.62-.55-1.29-.97-2-1.24-.72-.27-1.58-.4-2.59-.4s-1.99.21-2.9.62c-.9.42-1.7.98-2.38,1.7-.68.72-1.22,1.55-1.6,2.49-.38.95-.58,1.95-.58,3.01s.19,2.11.58,3.06c.38.95.92,1.78,1.6,2.49.68.72,1.48,1.28,2.38,1.69.9.41,1.87.61,2.9.61.86,0,1.69-.15,2.47-.44.78-.29,1.53-.71,2.25-1.25.23-.18.46-.25.7-.22.24.03.44.13.61.31s.26.4.26.7c0,.15-.03.28-.07.39s-.12.24-.22.37c-.85.73-1.78,1.27-2.8,1.6-1.02.33-2.08.5-3.19.5Z"/>
        <path class="cls-2" d="m82.94,19.58c-1.42,0-2.72-.24-3.91-.73s-2.22-1.17-3.09-2.04-1.54-1.91-2.02-3.11c-.47-1.2-.71-2.51-.71-3.92s.24-2.72.71-3.91,1.14-2.22,2.02-3.09,1.9-1.55,3.09-2.04c1.19-.49,2.49-.73,3.91-.73s2.72.24,3.9.73c1.18.49,2.21,1.17,3.09,2.04.88.87,1.56,1.9,2.03,3.09s.71,2.49.71,3.91-.24,2.73-.71,3.92c-.47,1.2-1.15,2.23-2.03,3.11-.88.87-1.91,1.55-3.09,2.04-1.18.49-2.48.73-3.9.73Zm0-1.96c1.11,0,2.13-.2,3.07-.6s1.75-.95,2.45-1.66c.69-.71,1.23-1.54,1.6-2.49.37-.95.56-1.98.56-3.09s-.19-2.14-.56-3.09c-.38-.95-.91-1.79-1.6-2.49-.69-.71-1.51-1.26-2.45-1.65-.94-.39-1.96-.59-3.07-.59s-2.14.2-3.08.59c-.95.39-1.76.94-2.44,1.65s-1.22,1.54-1.6,2.49c-.38.95-.57,1.98-.57,3.09s.19,2.14.57,3.09c.38.95.92,1.79,1.6,2.49s1.5,1.26,2.44,1.66,1.97.6,3.08.6Z"/>
        <path class="cls-2" d="m98.48,19.34c-.29,0-.54-.1-.75-.29-.2-.2-.31-.45-.31-.76V1.29c0-.29.1-.54.31-.75.2-.2.45-.31.75-.31s.54.1.75.31c.2.2.31.45.31.75v16.01h9.34c.29,0,.54.1.75.29.2.2.31.43.31.71,0,.29-.1.54-.31.73-.2.2-.45.29-.75.29h-10.39Z"/>
        <path class="cls-2" d="m120.9,19.58c-1.42,0-2.72-.24-3.91-.73s-2.22-1.17-3.09-2.04-1.54-1.91-2.02-3.11c-.47-1.2-.71-2.51-.71-3.92s.24-2.72.71-3.91,1.14-2.22,2.02-3.09,1.9-1.55,3.09-2.04c1.19-.49,2.49-.73,3.91-.73s2.72.24,3.9.73c1.18.49,2.21,1.17,3.09,2.04.88.87,1.56,1.9,2.03,3.09s.71,2.49.71,3.91-.24,2.73-.71,3.92c-.47,1.2-1.15,2.23-2.03,3.11-.88.87-1.91,1.55-3.09,2.04-1.18.49-2.48.73-3.9.73Zm0-1.96c1.11,0,2.13-.2,3.07-.6s1.75-.95,2.45-1.66c.69-.71,1.23-1.54,1.6-2.49.37-.95.56-1.98.56-3.09s-.19-2.14-.56-3.09c-.38-.95-.91-1.79-1.6-2.49-.69-.71-1.51-1.26-2.45-1.65-.94-.39-1.96-.59-3.07-.59s-2.14.2-3.08.59c-.95.39-1.76.94-2.44,1.65s-1.22,1.54-1.6,2.49c-.38.95-.57,1.98-.57,3.09s.19,2.14.57,3.09c.38.95.92,1.79,1.6,2.49s1.5,1.26,2.44,1.66,1.97.6,3.08.6Z"/>
        <path class="cls-2" d="m143.49,19.58c-1.32,0-2.55-.25-3.7-.76-1.15-.5-2.16-1.21-3.03-2.1s-1.55-1.94-2.03-3.12c-.48-1.18-.72-2.46-.72-3.83s.24-2.62.72-3.8c.48-1.18,1.15-2.22,2.02-3.11.86-.89,1.87-1.59,3.02-2.1,1.15-.51,2.39-.77,3.73-.77,1.19,0,2.26.17,3.2.5.94.33,1.87.88,2.76,1.63.15.11.24.24.28.38.04.14.04.27,0,.4-.04.13-.1.24-.18.34-.03.18-.13.32-.28.43-.16.11-.34.16-.56.16s-.43-.08-.62-.24c-.62-.55-1.29-.97-2-1.24-.72-.27-1.58-.4-2.59-.4s-1.99.21-2.9.62c-.91.42-1.7.98-2.38,1.7-.68.72-1.22,1.55-1.6,2.49s-.57,1.95-.57,3.01.19,2.11.57,3.06.92,1.78,1.6,2.49c.68.72,1.48,1.28,2.38,1.69.9.41,1.87.61,2.9.61.86,0,1.69-.15,2.47-.44.78-.29,1.53-.71,2.25-1.25.23-.18.46-.25.7-.22.24.03.44.13.61.31.17.17.26.4.26.7,0,.15-.02.28-.06.39-.04.11-.12.24-.23.37-.85.75-1.78,1.29-2.8,1.61-1.02.33-2.08.49-3.19.49Zm6.28-2.86l-2.03-.42v-4.77h-3.69c-.29,0-.54-.09-.75-.26-.2-.17-.3-.4-.3-.67,0-.26.1-.48.3-.66.2-.18.45-.27.75-.27h4.69c.29,0,.54.1.73.29s.29.45.29.76v5.99Z"/>
        <path class="cls-2" d="m155.62,19.34c-.31,0-.56-.1-.76-.29-.2-.2-.29-.45-.29-.76V1.29c0-.31.1-.56.29-.76.2-.2.45-.29.76-.29s.56.1.76.29c.2.2.29.45.29.76v16.99c0,.31-.1.56-.29.76-.2.2-.45.29-.76.29Z"/>
        <path class="cls-2" d="m170.95,19.58c-1.32,0-2.55-.25-3.7-.76-1.15-.5-2.16-1.21-3.03-2.1s-1.55-1.94-2.03-3.12c-.48-1.18-.72-2.46-.72-3.83s.24-2.62.72-3.8c.48-1.18,1.15-2.22,2.02-3.11.86-.89,1.87-1.59,3.02-2.1,1.15-.51,2.39-.77,3.73-.77,1.19,0,2.26.17,3.2.5.94.33,1.87.88,2.76,1.63.15.11.24.24.28.38.04.14.04.27,0,.4-.04.13-.1.24-.18.34-.03.18-.13.32-.28.43-.16.11-.34.16-.55.16s-.42-.08-.64-.24c-.62-.55-1.29-.97-2-1.24-.72-.27-1.58-.4-2.59-.4s-1.99.21-2.9.62c-.91.42-1.7.98-2.38,1.7-.68.72-1.22,1.55-1.6,2.49s-.57,1.95-.57,3.01.19,2.11.57,3.06.92,1.78,1.6,2.49c.68.72,1.48,1.28,2.38,1.69.9.41,1.87.61,2.9.61.86,0,1.69-.15,2.47-.44.78-.29,1.53-.71,2.25-1.25.23-.18.46-.25.7-.22.24.03.44.13.61.31.17.17.26.4.26.7,0,.15-.02.28-.07.39s-.12.24-.22.37c-.85.73-1.78,1.27-2.8,1.6s-2.08.5-3.19.5Z"/>
        <path class="cls-2" d="m181.07,19.34c-.41,0-.71-.17-.89-.5-.19-.33-.21-.67-.06-1.01l7.09-16.87c.21-.47.55-.71,1.03-.71s.8.24.98.71l7.11,16.89c.16.36.14.7-.06,1.01-.2.32-.49.48-.87.48-.21,0-.41-.06-.59-.17-.18-.11-.32-.27-.42-.46l-6.5-15.94h.73l-6.6,15.94c-.08.21-.21.37-.39.48-.18.11-.37.16-.56.16Zm1.52-4.45l.81-1.79h9.8l.83,1.79h-11.44Z"/>
      </g>
      <g>
        <circle class="cls-2" cx="15.67" cy="16.02" r="15.67"/>
        <g id="m0qVJX.tif">
          <path class="cls-1" d="m17.55.47c-.02.06-.05.1-.06.15-1.01,2.78-2.55,5.22-4.63,7.32-.77.78-1.61,1.46-2.5,2.09-.2.14-.35.31-.32.58.01.12.03.23.05.35.3,1.66.72,3.28,1.44,4.8.1.2.22.4.37.57.76.82,1.27,1.78,1.56,2.85.59,2.15.72,4.35.46,6.56-.19,1.6-.47,3.19-.71,4.78-.05.31-.1.63-.15.95,1.21.22,2.4.26,3.6.2,0-.07,0-.1,0-.14-.1-.61-.22-1.22-.32-1.83-.33-2.04-.71-4.07-.84-6.13-.09-1.37-.04-2.75.26-4.1.38-1.71,1.26-3.12,2.53-4.32.88-.83,1.64-1.74,2.15-2.85.91-1.97,1.5-4.04,1.92-6.16.24-1.22.43-2.45.67-3.68.04-.23-.02-.3-.2-.39-1.66-.84-3.4-1.37-5.27-1.6Zm10.75,6.84c-.72-.03-1.39.05-2.06.23-1.1.3-2.1.83-3.1,1.36-.23.12-.36.3-.44.54-.21.65-.42,1.3-.66,1.94-.61,1.64-1.46,3.13-2.77,4.33-.3.27-.57.59-.84.9-.79.92-1.37,1.95-1.61,3.16-.35,1.79-.27,3.58-.06,5.37.15,1.27.35,2.54.55,3.81.14.86.32,1.72.49,2.61.69-.14,1.36-.28,2.05-.42-.05-.14-.08-.25-.12-.36-.74-2.22-1.11-4.48-.72-6.83.29-1.75.97-3.31,2.17-4.63,1.26-1.38,2.83-2.28,4.57-2.91,1.33-.48,2.71-.76,4.11-.92.37-.04.74-.09,1.11-.13.12-.01.25,0,.26.16.03.29.04.58.06.87-.96.16-1.91.3-2.84.47-1.5.26-2.94.72-4.28,1.48-1.36.78-2.46,1.82-3.2,3.22-.09.18-.16.36-.27.6.13-.06.21-.09.28-.12.42-.17.83-.36,1.25-.51,1.13-.41,2.3-.59,3.51-.45,1.45.17,2.66.83,3.68,1.85.07.06.1.16.17.27,2.71-5.15,2.23-11.68-1.19-16.28-.04.13-.08.25-.12.39ZM0,15.51c.15.03.23.05.32.06,2.24.39,4.28,1.23,6.08,2.64,2.36,1.86,3.53,4.31,3.65,7.29.06,1.6-.18,3.16-.59,4.69-.04.14,0,.2.12.24.46.17.91.35,1.38.5.34.12.69.2,1.05.3.01-.06.02-.09.03-.12.16-1.01.33-2.01.48-3.02.3-1.99.5-3.98.34-6-.11-1.42-.4-2.8-1.07-4.08-.37-.71-.9-1.23-1.63-1.59-.56-.27-1.11-.59-1.63-.94-1.62-1.12-2.82-2.62-3.73-4.35-.63-1.19-1.58-1.85-2.88-2.09-.19-.03-.27,0-.35.17-.61,1.29-1.06,2.64-1.29,4.05-.12.73-.18,1.47-.27,2.22Zm28.93,8.4c-.3-.24-.58-.48-.86-.7-.99-.78-2.12-1.16-3.38-1.09-1.55.09-2.94.63-4.21,1.5-.14.1-.26.29-.3.45-.08.31-.11.63-.13.95-.1,1.32.03,2.63.35,3.91.15.62.34,1.23.52,1.84,1.93-.6,4.19-2.03,5.81-3.64,1.08-1.07,1.98-2.27,2.67-3.63-.15.13-.3.26-.47.41ZM8.81,1.97s-.07.01-.09.02c-1.89.94-3.52,2.21-4.89,3.81-.05.06-.06.18-.04.25.75,2.28,1.69,4.46,3.17,6.37.76.98,1.62,1.84,2.68,2.49.1.06.2.11.35.19-1.5-4.31-1.66-8.68-1.19-13.13Zm-.43,27.9c.07-.27.13-.52.19-.78.31-1.44.44-2.88.28-4.35-.06-.54-.22-.97-.7-1.25-.2-.12-.38-.27-.58-.39-1.85-1.13-3.77-1.31-5.76-.39-.19.09-.22.16-.12.35,1.48,2.88,3.63,5.11,6.46,6.68.07.04.14.07.23.12ZM16.34.37c-1.04-.05-2.07,0-3.09.17-1.06.17-2.1.44-3.1.83-.07.03-.15.11-.15.17-.08.81-.19,1.61-.21,2.42-.03,1.4-.01,2.8,0,4.2,0,.28.05.56.07.85,3.11-2.2,5.13-5.17,6.49-8.64ZM.06,16.65c-.1,1.08.66,4.55,1.12,5.16,2.3-1.15,4.57-1.03,6.86.2-.43-.87-.93-1.6-1.57-2.23-1.07-1.07-2.37-1.79-3.76-2.36-.86-.35-1.75-.6-2.66-.77ZM27.9,6.2c-1.1-1.35-2.34-2.46-3.78-3.39-.29,1.57-.57,3.13-.85,4.72,1.49-.69,2.94-1.35,4.64-1.34Zm-24.98.74c-.26.39-.48.73-.71,1.09.38.07.72.13,1.11.2-.13-.43-.26-.83-.4-1.29Z"/>
        </g>
      </g>
    </g>
  </g>
</svg>