<?xml version="1.0" encoding="utf-8"?>
<!-- Generator: Adobe Illustrator 27.1.0, SVG Export Plug-In . SVG Version: 6.00 Build 0)  -->
<svg version="1.1" id="Calque_2_00000043458958891873313350000018123101730342634399_"
	 xmlns="http://www.w3.org/2000/svg" xmlns:xlink="http://www.w3.org/1999/xlink" x="0px" y="0px" viewBox="0 0 196.4 31.7"
	 style="enable-background:new 0 0 196.4 31.7;" xml:space="preserve">
<style type="text/css">
	.st0{fill:#2D3B4A;}
	.st1{fill:#FFFFFF;}
	.st2{fill:#E0814B;}
</style>
<g id="Calque_5">
	<g>
		<g>
			<path class="st0" d="M39.2,31.3c-0.1,0-0.2,0-0.3-0.1s-0.1-0.2-0.1-0.3v-6.7c0-0.1,0-0.2,0.1-0.3s0.2-0.1,0.3-0.1s0.2,0,0.3,0.1
				s0.1,0.2,0.1,0.3v6.3h3.7c0.1,0,0.2,0,0.3,0.1s0.1,0.1,0.1,0.2c0,0.1,0,0.2-0.1,0.2c-0.1,0.1-0.2,0.1-0.3,0.1h-4.1V31.3z"/>
			<path class="st0" d="M44.2,26.3c-0.1,0-0.1,0-0.2-0.1c0-0.1-0.1-0.1,0-0.2c0.1-0.2,0.2-0.4,0.2-0.6c0-0.1,0-0.3,0-0.4
				c0-0.1,0-0.2-0.1-0.3c0-0.1,0-0.2,0-0.3s0-0.3,0.1-0.4c0.1-0.1,0.2-0.1,0.3-0.1c0.2,0,0.3,0.1,0.4,0.2c0.1,0.1,0.1,0.3,0.1,0.6
				c0,0.2,0,0.3-0.1,0.5s-0.1,0.4-0.2,0.6s-0.2,0.3-0.3,0.5C44.4,26.2,44.3,26.3,44.2,26.3L44.2,26.3z"/>
			<path class="st0" d="M48.8,31.4c-0.5,0-1-0.1-1.4-0.3s-0.7-0.5-0.9-0.9s-0.3-0.8-0.3-1.4s0.1-1,0.3-1.4s0.5-0.7,0.9-0.9
				s0.8-0.3,1.3-0.3s0.9,0.1,1.3,0.3c0.4,0.2,0.6,0.5,0.8,0.9s0.3,0.8,0.3,1.3c0,0.1,0,0.2-0.1,0.2C50.9,29,50.8,29,50.8,29h-4.1
				v-0.6h4.1l-0.4,0.3c0-0.4-0.1-0.7-0.2-1s-0.3-0.5-0.6-0.7s-0.6-0.2-0.9-0.2s-0.7,0.1-1,0.3s-0.5,0.4-0.6,0.7s-0.2,0.6-0.2,1
				s0.1,0.7,0.2,1c0.2,0.3,0.4,0.5,0.7,0.7s0.6,0.3,1,0.3c0.2,0,0.5,0,0.7-0.1s0.4-0.2,0.6-0.3c0.1-0.1,0.2-0.1,0.2-0.1
				s0.2,0,0.2,0.1c0.1,0.1,0.1,0.2,0.1,0.2s0,0.2-0.1,0.2c-0.2,0.2-0.5,0.3-0.8,0.4S49,31.4,48.8,31.4L48.8,31.4z M48.5,25.3
				c-0.1,0-0.2,0-0.3-0.1s-0.1-0.2-0.1-0.3s0-0.2,0.1-0.2l1.1-1.1c0.1-0.1,0.2-0.1,0.3-0.1s0.2,0,0.3,0.1s0.1,0.2,0.1,0.3V24
				c0,0,0,0.1-0.1,0.1l-1.1,1.1C48.7,25.3,48.6,25.3,48.5,25.3L48.5,25.3z"/>
			<path class="st0" d="M54.4,31.4c-0.5,0-1-0.1-1.3-0.4s-0.7-0.5-0.9-1c-0.2-0.4-0.3-0.8-0.3-1.3s0.1-1,0.3-1.4s0.5-0.7,0.9-1
				c0.4-0.2,0.8-0.4,1.3-0.4c0.4,0,0.8,0.1,1.1,0.2c0.3,0.2,0.6,0.4,0.9,0.7c0.1,0.1,0.1,0.2,0.1,0.2c0,0.1-0.1,0.2-0.2,0.2
				c-0.1,0-0.2,0.1-0.2,0s-0.2-0.1-0.2-0.1c-0.4-0.4-0.8-0.6-1.4-0.6c-0.4,0-0.7,0.1-0.9,0.3c-0.3,0.2-0.5,0.4-0.6,0.7
				s-0.2,0.6-0.2,1s0.1,0.7,0.2,1c0.2,0.3,0.4,0.5,0.7,0.7s0.6,0.3,1,0.3c0.2,0,0.5,0,0.7-0.1s0.4-0.2,0.5-0.3s0.2-0.1,0.2-0.1
				s0.2,0,0.2,0.1c0.1,0.1,0.1,0.2,0.1,0.2c0,0.1,0,0.2-0.1,0.2C55.7,31.1,55.1,31.3,54.4,31.4L54.4,31.4z"/>
			<path class="st0" d="M60.1,31.4c-0.5,0-1-0.1-1.4-0.3s-0.7-0.5-0.9-0.9c-0.2-0.5-0.3-1-0.3-1.5s0.1-1,0.3-1.4s0.5-0.7,0.9-0.9
				c0.4-0.2,0.9-0.3,1.4-0.3s1,0.1,1.4,0.3s0.7,0.5,0.9,0.9c0.2,0.4,0.3,0.9,0.3,1.4s-0.1,1-0.3,1.4c-0.2,0.4-0.6,0.7-0.9,0.9
				C61.1,31.2,60.6,31.4,60.1,31.4z M60.1,30.7c0.4,0,0.7-0.1,1-0.3s0.5-0.4,0.7-0.7s0.2-0.6,0.2-1s-0.1-0.7-0.2-1s-0.4-0.5-0.7-0.7
				c-0.3-0.2-0.6-0.3-1-0.3s-0.7,0.1-1,0.3s-0.5,0.4-0.7,0.7s-0.2,0.6-0.2,1s0.1,0.7,0.2,1c0.2,0.3,0.4,0.5,0.7,0.7
				S59.8,30.7,60.1,30.7z"/>
			<path class="st0" d="M65.3,31.3c-0.2,0-0.5-0.1-0.7-0.2c-0.2-0.1-0.4-0.3-0.5-0.6c-0.1-0.3-0.2-0.5-0.2-0.9v-5.4
				c0-0.1,0-0.2,0.1-0.3c0.1-0.1,0.2-0.1,0.3-0.1c0.1,0,0.2,0,0.3,0.1c0.1,0.1,0.1,0.1,0.1,0.3v5.4c0,0.3,0.1,0.5,0.2,0.7
				s0.2,0.3,0.4,0.3h0.2c0.1,0,0.2,0,0.2,0.1c0.1,0.1,0.1,0.2,0.1,0.3s0,0.2-0.1,0.3S65.5,31.4,65.3,31.3L65.3,31.3L65.3,31.3z"/>
			<path class="st0" d="M69,31.4c-0.5,0-1-0.1-1.4-0.3s-0.7-0.5-0.9-0.9c-0.2-0.4-0.3-0.8-0.3-1.4s0.1-1,0.3-1.4
				c0.2-0.4,0.5-0.7,0.9-0.9s0.8-0.3,1.3-0.3s0.9,0.1,1.3,0.3s0.6,0.5,0.8,0.9c0.2,0.4,0.3,0.8,0.3,1.3c0,0.1,0,0.2-0.1,0.2
				C71.1,29,71,29,71,29h-4.1v-0.6H71l-0.5,0.2c0-0.4-0.1-0.7-0.2-1s-0.3-0.5-0.6-0.7s-0.6-0.2-0.9-0.2s-0.7,0.1-1,0.3
				s-0.5,0.4-0.6,0.7s-0.2,0.6-0.2,1s0.1,0.7,0.2,1c0.2,0.3,0.4,0.5,0.7,0.7c0.3,0.2,0.6,0.3,1,0.3c0.2,0,0.5,0,0.7-0.1
				s0.4-0.2,0.6-0.3c0.1-0.1,0.2-0.1,0.2-0.1s0.2,0,0.2,0.1c0.1,0.1,0.1,0.2,0.1,0.2s0,0.2-0.1,0.2c-0.2,0.2-0.5,0.3-0.8,0.4
				S69.3,31.4,69,31.4L69,31.4z"/>
			<path class="st0" d="M77.7,31.4c-0.5,0-0.9-0.1-1.4-0.4c-0.4-0.2-0.7-0.5-0.9-1c-0.2-0.4-0.3-0.8-0.3-1.4c0-0.5,0.1-1,0.3-1.3
				c0.2-0.4,0.5-0.7,0.9-1c0.4-0.2,0.8-0.4,1.3-0.4c0.4,0,0.8,0.1,1.2,0.3c0.3,0.2,0.6,0.4,0.8,0.7v-2.7c0-0.1,0-0.2,0.1-0.3
				s0.2-0.1,0.3-0.1s0.2,0,0.3,0.1s0.1,0.2,0.1,0.3v4.5c0,0.5-0.1,0.9-0.4,1.3c-0.2,0.4-0.6,0.7-0.9,0.9
				C78.6,31.2,78.1,31.3,77.7,31.4L77.7,31.4z M77.7,30.7c0.4,0,0.7-0.1,1-0.3s0.5-0.4,0.7-0.7s0.2-0.6,0.2-1s-0.1-0.7-0.2-1
				c-0.2-0.3-0.4-0.5-0.7-0.7s-0.6-0.3-1-0.3s-0.7,0.1-1,0.3s-0.5,0.4-0.7,0.7s-0.3,0.6-0.3,1s0.1,0.7,0.3,1
				c0.2,0.3,0.4,0.5,0.7,0.7C77,30.6,77.3,30.7,77.7,30.7z"/>
			<path class="st0" d="M84.4,31.4c-0.5,0-1-0.1-1.4-0.3s-0.7-0.5-0.9-0.9c-0.2-0.4-0.3-0.8-0.3-1.4s0.1-1,0.3-1.4
				c0.2-0.4,0.5-0.7,0.9-0.9s0.8-0.3,1.3-0.3s0.9,0.1,1.3,0.3s0.6,0.5,0.8,0.9c0.2,0.4,0.3,0.8,0.3,1.3c0,0.1,0,0.2-0.1,0.2
				C86.5,29,86.4,29,86.4,29h-4.1v-0.6h4.1L86,28.7c0-0.4-0.1-0.7-0.2-1s-0.3-0.5-0.6-0.7s-0.6-0.2-0.9-0.2s-0.7,0.1-1,0.3
				s-0.5,0.4-0.6,0.7s-0.2,0.6-0.2,1s0.1,0.7,0.2,1c0.2,0.3,0.4,0.5,0.7,0.7c0.3,0.2,0.6,0.3,1,0.3c0.2,0,0.5,0,0.7-0.1
				s0.4-0.2,0.6-0.3c0.1-0.1,0.2-0.1,0.2-0.1s0.2,0,0.2,0.1c0.1,0.1,0.1,0.2,0.1,0.2s0,0.2-0.1,0.2c-0.2,0.2-0.5,0.3-0.8,0.4
				S84.7,31.4,84.4,31.4L84.4,31.4z"/>
			<path class="st0" d="M91.8,31.3c-0.2,0-0.5-0.1-0.7-0.2s-0.4-0.3-0.5-0.6s-0.1-0.5-0.1-0.8v-5.5c0-0.1,0-0.2,0.1-0.3
				s0.2-0.1,0.3-0.1s0.2,0,0.3,0.1c0.1,0.1,0.1,0.1,0.1,0.3v5.4c0,0.3,0.1,0.5,0.2,0.7s0.2,0.3,0.4,0.3h0.2c0.1,0,0.2,0,0.2,0.1
				c0.1,0.1,0.1,0.2,0.1,0.3s0,0.2-0.1,0.3s-0.2,0.1-0.3,0.1C91.9,31.3,91.8,31.3,91.8,31.3z"/>
			<path class="st0" d="M95.4,31.4c-0.5,0-0.9-0.1-1.3-0.4s-0.7-0.5-0.9-1c-0.2-0.4-0.3-0.8-0.3-1.3s0.1-1,0.3-1.4
				c0.2-0.4,0.6-0.7,0.9-1c0.4-0.2,0.8-0.4,1.4-0.4s0.9,0.1,1.3,0.4s0.7,0.5,0.9,1c0.2,0.4,0.3,0.8,0.4,1.4l-0.3,0.2
				c0,0.5-0.1,0.9-0.3,1.2S97,30.7,96.6,31C96.3,31.2,95.8,31.3,95.4,31.4L95.4,31.4z M95.5,30.7c0.4,0,0.7-0.1,1-0.3
				s0.5-0.4,0.7-0.7s0.2-0.6,0.2-1s-0.1-0.7-0.2-1c-0.2-0.3-0.4-0.5-0.7-0.7c-0.3-0.2-0.6-0.3-1-0.3s-0.7,0.1-1,0.3
				s-0.5,0.4-0.7,0.7s-0.3,0.6-0.3,1s0.1,0.7,0.3,1c0.2,0.3,0.4,0.5,0.7,0.7C94.8,30.6,95.1,30.7,95.5,30.7z M97.7,31.3
				c-0.1,0-0.2,0-0.3-0.1s-0.1-0.1-0.1-0.3v-1.6l0.2-0.8l0.6,0.1v2.2c0,0.1,0,0.2-0.1,0.3C97.9,31.3,97.8,31.3,97.7,31.3L97.7,31.3z
				"/>
			<path class="st0" d="M102,26.9c-0.1,0-0.2,0-0.2-0.1c-0.1-0.1-0.1-0.1-0.1-0.2s0-0.2,0.1-0.2c0.1-0.1,0.1-0.1,0.2-0.1h2.4
				c0.1,0,0.2,0,0.2,0.1c0.1,0.1,0.1,0.1,0.1,0.2s0,0.2-0.1,0.2c-0.1,0.1-0.1,0.1-0.2,0.1H102z M104.4,31.3c-0.3,0-0.6-0.1-0.9-0.2
				s-0.5-0.4-0.6-0.6c-0.2-0.3-0.2-0.6-0.2-1v-4.6c0-0.1,0-0.2,0.1-0.3s0.2-0.1,0.3-0.1s0.2,0,0.3,0.1c0.1,0.1,0.1,0.2,0.1,0.3v4.6
				c0,0.3,0.1,0.6,0.3,0.8c0.2,0.2,0.4,0.3,0.7,0.3h0.3c0.1,0,0.2,0,0.2,0.1c0.1,0.1,0.1,0.2,0.1,0.3s0,0.2-0.1,0.3
				s-0.2,0.1-0.3,0.1L104.4,31.3L104.4,31.3z"/>
			<path class="st0" d="M106.5,31.3c-0.1,0-0.2,0-0.3-0.1c-0.1-0.1-0.1-0.1-0.1-0.3v-4.5c0-0.1,0-0.2,0.1-0.3s0.2-0.1,0.3-0.1
				s0.2,0,0.3,0.1c0.1,0.1,0.1,0.1,0.1,0.3v4.5c0,0.1,0,0.2-0.1,0.3C106.8,31.3,106.7,31.3,106.5,31.3z M106.5,28.1
				c0-0.4,0.1-0.7,0.3-1c0.2-0.3,0.4-0.5,0.7-0.7s0.6-0.3,1-0.3c0.3,0,0.5,0,0.7,0.1s0.2,0.2,0.2,0.4c0,0.1-0.1,0.2-0.1,0.2
				c-0.1,0-0.1,0-0.2,0s-0.2,0-0.3,0c-0.4,0-0.7,0-0.9,0.1c-0.3,0.1-0.5,0.3-0.7,0.5s-0.2,0.5-0.2,0.8
				C106.9,28.1,106.5,28.1,106.5,28.1z"/>
			<path class="st0" d="M112.5,31.4c-0.5,0-0.9-0.1-1.3-0.4s-0.7-0.5-0.9-1c-0.2-0.4-0.3-0.8-0.3-1.3s0.1-1,0.3-1.4
				c0.2-0.4,0.6-0.7,0.9-1c0.4-0.2,0.8-0.4,1.4-0.4s0.9,0.1,1.3,0.4s0.7,0.5,0.9,1c0.2,0.4,0.3,0.8,0.4,1.4l-0.3,0.2
				c0,0.5-0.1,0.9-0.3,1.2s-0.5,0.6-0.9,0.9C113.3,31.2,112.9,31.3,112.5,31.4L112.5,31.4z M112.6,30.7c0.4,0,0.7-0.1,1-0.3
				s0.5-0.4,0.7-0.7s0.2-0.6,0.2-1s-0.1-0.7-0.2-1c-0.2-0.3-0.4-0.5-0.7-0.7c-0.3-0.2-0.6-0.3-1-0.3s-0.7,0.1-1,0.3
				s-0.5,0.4-0.7,0.7s-0.3,0.6-0.3,1s0.1,0.7,0.3,1c0.2,0.3,0.4,0.5,0.7,0.7C111.9,30.6,112.2,30.7,112.6,30.7z M114.8,31.3
				c-0.1,0-0.2,0-0.3-0.1s-0.1-0.1-0.1-0.3v-1.6l0.2-0.8l0.6,0.1v2.2c0,0.1,0,0.2-0.1,0.3C115,31.3,114.9,31.3,114.8,31.3
				L114.8,31.3z"/>
			<path class="st0" d="M117,31.3c-0.1,0-0.2,0-0.3-0.1c-0.1-0.1-0.1-0.2-0.1-0.3v-4.5c0-0.1,0-0.2,0.1-0.3s0.2-0.1,0.3-0.1
				c0.1,0,0.2,0,0.3,0.1c0.1,0.1,0.1,0.2,0.1,0.3v4.5c0,0.1,0,0.2-0.1,0.3C117.2,31.3,117.1,31.3,117,31.3z M121.1,31.3
				c-0.1,0-0.2,0-0.3-0.1c-0.1-0.1-0.1-0.2-0.1-0.3v-2.5c0-0.4-0.1-0.7-0.2-1c-0.2-0.2-0.3-0.4-0.6-0.6c-0.3-0.1-0.6-0.2-0.9-0.2
				s-0.6,0.1-0.8,0.2c-0.2,0.1-0.4,0.3-0.6,0.5s-0.2,0.5-0.2,0.7h-0.5c0-0.4,0.1-0.8,0.3-1.1c0.2-0.3,0.5-0.6,0.8-0.7
				s0.7-0.3,1.1-0.3s0.9,0.1,1.2,0.3c0.4,0.2,0.6,0.5,0.8,0.8c0.2,0.4,0.3,0.8,0.3,1.3v2.5c0,0.1,0,0.2-0.1,0.3
				S121.2,31.3,121.1,31.3L121.1,31.3z"/>
			<path class="st0" d="M124.9,31.4c-0.4,0-0.8-0.1-1.1-0.2c-0.4-0.1-0.7-0.3-0.9-0.6c-0.1-0.1-0.1-0.2-0.1-0.3s0.1-0.2,0.1-0.2
				c0.1-0.1,0.2-0.1,0.3-0.1s0.2,0,0.2,0.1c0.1,0.2,0.4,0.3,0.6,0.4c0.2,0.1,0.5,0.1,0.8,0.1c0.5,0,0.8-0.1,1-0.2
				c0.2-0.2,0.3-0.4,0.3-0.6c0-0.2-0.1-0.4-0.3-0.6c-0.2-0.1-0.6-0.3-1.1-0.3c-0.6-0.1-1.1-0.3-1.4-0.5s-0.4-0.5-0.4-0.9
				c0-0.3,0.1-0.6,0.3-0.8s0.4-0.4,0.7-0.5s0.6-0.2,0.9-0.2c0.4,0,0.8,0.1,1.1,0.2c0.3,0.1,0.6,0.3,0.8,0.6c0.1,0.1,0.1,0.2,0.1,0.3
				s-0.1,0.2-0.2,0.2c-0.1,0-0.2,0.1-0.3,0c-0.1,0-0.2-0.1-0.2-0.1c-0.2-0.2-0.3-0.3-0.6-0.4c-0.2-0.1-0.4-0.1-0.7-0.1
				s-0.6,0.1-0.8,0.2c-0.2,0.1-0.3,0.3-0.3,0.5c0,0.1,0,0.3,0.1,0.4c0.1,0.1,0.2,0.2,0.4,0.3s0.5,0.2,0.8,0.2
				c0.5,0.1,0.9,0.2,1.1,0.3c0.3,0.2,0.5,0.3,0.6,0.5s0.2,0.4,0.2,0.7s-0.1,0.6-0.3,0.8s-0.4,0.4-0.7,0.5
				C125.7,31.3,125.3,31.4,124.9,31.4L124.9,31.4z"/>
			<path class="st0" d="M128.8,25.1c-0.1,0-0.3,0-0.4-0.1c-0.1-0.1-0.1-0.2-0.1-0.4s0.1-0.3,0.2-0.4c0.1-0.1,0.2-0.1,0.4-0.1
				s0.2,0,0.4,0.1c0.1,0.1,0.2,0.2,0.2,0.4s-0.1,0.3-0.2,0.4C129,25.1,128.9,25.1,128.8,25.1L128.8,25.1z M128.8,31.3
				c-0.1,0-0.2,0-0.3-0.1s-0.1-0.2-0.1-0.3v-4.5c0-0.1,0-0.2,0.1-0.3s0.2-0.1,0.3-0.1s0.2,0,0.3,0.1s0.1,0.2,0.1,0.3v4.5
				c0,0.1,0,0.2-0.1,0.3C128.9,31.3,128.9,31.3,128.8,31.3z"/>
			<path class="st0" d="M130.7,26.9c-0.1,0-0.2,0-0.2-0.1c-0.1-0.1-0.1-0.1-0.1-0.2s0-0.2,0.1-0.2c0.1-0.1,0.1-0.1,0.2-0.1h2.4
				c0.1,0,0.2,0,0.2,0.1c0.1,0.1,0.1,0.1,0.1,0.2s0,0.2-0.1,0.2c-0.1,0.1-0.1,0.1-0.2,0.1H130.7z M133,31.3c-0.3,0-0.6-0.1-0.9-0.2
				s-0.5-0.4-0.6-0.6c-0.1-0.3-0.2-0.6-0.2-1v-4.6c0-0.1,0-0.2,0.1-0.3s0.1-0.1,0.3-0.1s0.2,0,0.3,0.1s0.1,0.2,0.1,0.3v4.6
				c0,0.3,0.1,0.6,0.3,0.8s0.4,0.3,0.7,0.3h0.3c0.1,0,0.2,0,0.2,0.1c0.1,0.1,0.1,0.2,0.1,0.3s0,0.2-0.1,0.3s-0.2,0.1-0.3,0.1
				L133,31.3L133,31.3z"/>
			<path class="st0" d="M135.3,25.1c-0.1,0-0.3,0-0.4-0.1c-0.1-0.1-0.1-0.2-0.1-0.4s0.1-0.3,0.2-0.4c0.1-0.1,0.2-0.1,0.4-0.1
				s0.2,0,0.4,0.1c0.1,0.1,0.2,0.2,0.2,0.4s-0.1,0.3-0.1,0.4C135.6,25.1,135.5,25.1,135.3,25.1L135.3,25.1z M135.3,31.3
				c-0.1,0-0.2,0-0.3-0.1s-0.1-0.2-0.1-0.3v-4.5c0-0.1,0-0.2,0.1-0.3s0.2-0.1,0.3-0.1s0.2,0,0.3,0.1s0.1,0.2,0.1,0.3v4.5
				c0,0.1,0,0.2-0.1,0.3S135.5,31.3,135.3,31.3z"/>
			<path class="st0" d="M140,31.4c-0.5,0-1-0.1-1.4-0.3s-0.7-0.5-0.9-0.9s-0.3-0.8-0.3-1.4c0-0.5,0.1-1,0.3-1.4s0.5-0.7,0.9-0.9
				s0.9-0.3,1.4-0.3s1,0.1,1.4,0.3s0.7,0.5,0.9,0.9s0.4,0.9,0.4,1.4s-0.1,1-0.4,1.4c-0.2,0.4-0.6,0.7-0.9,0.9
				C140.9,31.2,140.5,31.4,140,31.4z M140,30.7c0.4,0,0.7-0.1,1-0.3s0.5-0.4,0.7-0.7s0.2-0.6,0.2-1s-0.1-0.7-0.2-1s-0.4-0.5-0.7-0.7
				s-0.6-0.3-1-0.3s-0.7,0.1-1,0.3s-0.5,0.4-0.7,0.7s-0.2,0.6-0.2,1s0.1,0.7,0.2,1c0.2,0.3,0.4,0.5,0.7,0.7S139.6,30.7,140,30.7z"/>
			<path class="st0" d="M144.4,31.3c-0.1,0-0.2,0-0.3-0.1S144,31,144,30.9v-4.5c0-0.1,0-0.2,0.1-0.3s0.2-0.1,0.3-0.1s0.2,0,0.3,0.1
				s0.1,0.2,0.1,0.3v4.5c0,0.1,0,0.2-0.1,0.3C144.6,31.3,144.5,31.3,144.4,31.3z M148.5,31.3c-0.1,0-0.2,0-0.3-0.1s-0.1-0.2-0.1-0.3
				v-2.5c0-0.4-0.1-0.7-0.2-1c-0.1-0.2-0.4-0.4-0.6-0.6c-0.3-0.1-0.6-0.2-0.9-0.2s-0.6,0.1-0.8,0.2c-0.2,0.1-0.4,0.3-0.6,0.5
				c-0.2,0.2-0.2,0.5-0.2,0.7h-0.5c0-0.4,0.1-0.8,0.3-1.1s0.5-0.6,0.8-0.7s0.7-0.3,1.1-0.3c0.4,0,0.9,0.1,1.2,0.3
				c0.4,0.2,0.6,0.5,0.8,0.8c0.2,0.4,0.3,0.8,0.3,1.3v2.5c0,0.1,0,0.2-0.1,0.3S148.6,31.3,148.5,31.3L148.5,31.3z"/>
			<path class="st0" d="M153.7,31.3c-0.1,0-0.2,0-0.3-0.1s-0.1-0.1-0.1-0.3v-4.5c0-0.1,0-0.2,0.1-0.3s0.1-0.1,0.3-0.1s0.2,0,0.3,0.1
				s0.1,0.1,0.1,0.3v4.5c0,0.1,0,0.2-0.1,0.3S153.8,31.3,153.7,31.3z M153.6,28.1c0-0.4,0.1-0.7,0.3-1s0.4-0.5,0.7-0.7
				s0.6-0.3,1-0.3c0.3,0,0.5,0,0.7,0.1s0.2,0.2,0.2,0.4c0,0.1-0.1,0.2-0.1,0.2c-0.1,0-0.1,0-0.2,0s-0.2,0-0.3,0
				c-0.4,0-0.7,0-0.9,0.1c-0.3,0.1-0.5,0.3-0.7,0.5s-0.2,0.5-0.2,0.8L153.6,28.1L153.6,28.1z"/>
			<path class="st0" d="M159.7,31.4c-0.5,0-1-0.1-1.4-0.3s-0.7-0.5-0.9-0.9s-0.3-0.8-0.3-1.4s0.1-1,0.3-1.4s0.5-0.7,0.9-0.9
				s0.8-0.3,1.3-0.3s0.9,0.1,1.3,0.3c0.4,0.2,0.6,0.5,0.8,0.9s0.3,0.8,0.3,1.3c0,0.1,0,0.2-0.1,0.2c-0.1,0.1-0.1,0.1-0.2,0.1h-4.2
				v-0.6h4.1l-0.4,0.3c0-0.4-0.1-0.7-0.2-1s-0.3-0.5-0.6-0.7s-0.6-0.2-0.9-0.2s-0.7,0.1-1,0.3s-0.5,0.4-0.6,0.7s-0.2,0.6-0.2,1
				s0.1,0.7,0.2,1c0.2,0.3,0.4,0.5,0.7,0.7s0.6,0.3,1,0.3c0.2,0,0.5,0,0.7-0.1s0.4-0.2,0.6-0.3c0.1-0.1,0.1-0.1,0.2-0.1
				c0.1,0,0.2,0,0.2,0.1c0.1,0.1,0.1,0.2,0.1,0.2s0,0.2-0.1,0.2c-0.2,0.2-0.5,0.3-0.8,0.4S159.9,31.4,159.7,31.4L159.7,31.4z
				 M159.4,25.3c-0.1,0-0.2,0-0.3-0.1S159,25,159,24.9s0-0.2,0.1-0.2l1.1-1.1c0.1-0.1,0.2-0.1,0.3-0.1s0.2,0,0.3,0.1
				s0.1,0.2,0.1,0.3V24c0,0,0,0.1-0.1,0.1l-1.1,1.1C159.6,25.3,159.5,25.3,159.4,25.3L159.4,25.3z"/>
			<path class="st0" d="M165,31.4c-0.4,0-0.8-0.1-1.1-0.2s-0.7-0.3-0.9-0.6c-0.1-0.1-0.1-0.2-0.1-0.3s0.1-0.2,0.1-0.2
				c0.1-0.1,0.2-0.1,0.3-0.1s0.2,0,0.2,0.1c0.1,0.2,0.4,0.3,0.6,0.4c0.2,0.1,0.5,0.1,0.8,0.1c0.5,0,0.8-0.1,1-0.2s0.3-0.4,0.3-0.6
				c0-0.2-0.1-0.4-0.3-0.6c-0.2-0.1-0.6-0.3-1.1-0.3c-0.6-0.1-1.1-0.3-1.4-0.5s-0.4-0.5-0.4-0.9c0-0.3,0.1-0.6,0.3-0.8
				s0.4-0.4,0.7-0.5s0.6-0.2,0.9-0.2c0.4,0,0.8,0.1,1.1,0.2c0.3,0.1,0.6,0.3,0.8,0.6c0.1,0.1,0.1,0.2,0.1,0.3s-0.1,0.2-0.1,0.2
				c-0.1,0-0.2,0.1-0.3,0c-0.1,0-0.2-0.1-0.2-0.1c-0.2-0.2-0.3-0.3-0.6-0.4c-0.2-0.1-0.4-0.1-0.7-0.1c-0.4,0-0.6,0.1-0.8,0.2
				s-0.3,0.3-0.3,0.5c0,0.1,0,0.3,0.1,0.4c0.1,0.1,0.2,0.2,0.4,0.3s0.5,0.2,0.8,0.2c0.5,0.1,0.9,0.2,1.1,0.3
				c0.3,0.2,0.5,0.3,0.6,0.5s0.2,0.4,0.2,0.7s-0.1,0.6-0.3,0.8s-0.4,0.4-0.7,0.5S165.4,31.4,165,31.4L165,31.4z"/>
			<path class="st0" d="M168.8,25.1c-0.1,0-0.3,0-0.4-0.1c-0.1-0.1-0.1-0.2-0.1-0.4s0.1-0.3,0.2-0.4c0.1-0.1,0.2-0.1,0.4-0.1
				s0.2,0,0.4,0.1c0.1,0.1,0.2,0.2,0.2,0.4s-0.1,0.3-0.1,0.4C169.1,25.1,169,25.1,168.8,25.1L168.8,25.1z M168.8,31.3
				c-0.1,0-0.2,0-0.3-0.1s-0.1-0.2-0.1-0.3v-4.5c0-0.1,0-0.2,0.1-0.3s0.2-0.1,0.3-0.1s0.2,0,0.3,0.1s0.1,0.2,0.1,0.3v4.5
				c0,0.1,0,0.2-0.1,0.3S168.9,31.3,168.8,31.3z"/>
			<path class="st0" d="M172.2,31.3c-0.2,0-0.5-0.1-0.7-0.2s-0.4-0.3-0.5-0.6s-0.2-0.5-0.2-0.9v-5.4c0-0.1,0-0.2,0.1-0.3
				s0.1-0.1,0.3-0.1s0.2,0,0.3,0.1s0.1,0.1,0.1,0.3v5.4c0,0.3,0.1,0.5,0.2,0.7s0.2,0.3,0.4,0.3h0.2c0.1,0,0.2,0,0.2,0.1
				s0.1,0.2,0.1,0.3s0,0.2-0.1,0.3s-0.2,0.1-0.3,0.1L172.2,31.3L172.2,31.3z"/>
			<path class="st0" d="M174.3,25.1c-0.1,0-0.3,0-0.4-0.1c-0.1-0.1-0.1-0.2-0.1-0.4s0.1-0.3,0.2-0.4c0.1-0.1,0.2-0.1,0.4-0.1
				s0.2,0,0.4,0.1c0.1,0.1,0.2,0.2,0.2,0.4s-0.1,0.3-0.1,0.4C174.6,25.1,174.4,25.1,174.3,25.1L174.3,25.1z M174.3,31.3
				c-0.1,0-0.2,0-0.3-0.1s-0.1-0.2-0.1-0.3v-4.5c0-0.1,0-0.2,0.1-0.3s0.2-0.1,0.3-0.1s0.2,0,0.3,0.1s0.1,0.2,0.1,0.3v4.5
				c0,0.1,0,0.2-0.1,0.3S174.4,31.3,174.3,31.3z"/>
			<path class="st0" d="M178.9,31.4c-0.5,0-1-0.1-1.4-0.3s-0.7-0.5-0.9-0.9s-0.3-0.8-0.3-1.4s0.1-1,0.3-1.4s0.5-0.7,0.9-0.9
				s0.8-0.3,1.3-0.3s0.9,0.1,1.3,0.3c0.4,0.2,0.6,0.5,0.8,0.9s0.3,0.8,0.3,1.3c0,0.1,0,0.2-0.1,0.2C181,29,181,29,180.9,29h-4.1
				v-0.6h4.1l-0.4,0.3c0-0.4-0.1-0.7-0.2-1s-0.3-0.5-0.6-0.7s-0.6-0.2-0.9-0.2s-0.7,0.1-1,0.3s-0.5,0.4-0.6,0.7s-0.2,0.6-0.2,1
				s0.1,0.7,0.2,1c0.2,0.3,0.4,0.5,0.7,0.7s0.6,0.3,1,0.3c0.2,0,0.5,0,0.7-0.1s0.4-0.2,0.6-0.3c0.1-0.1,0.1-0.1,0.2-0.1
				c0.1,0,0.2,0,0.2,0.1c0.1,0.1,0.1,0.2,0.1,0.2s0,0.2-0.1,0.2c-0.2,0.2-0.5,0.3-0.8,0.4S179.1,31.4,178.9,31.4L178.9,31.4z"/>
			<path class="st0" d="M182.7,31.3c-0.1,0-0.2,0-0.3-0.1s-0.1-0.2-0.1-0.3v-4.5c0-0.1,0-0.2,0.1-0.3s0.2-0.1,0.3-0.1s0.2,0,0.3,0.1
				s0.1,0.2,0.1,0.3v4.5c0,0.1,0,0.2-0.1,0.3S182.8,31.3,182.7,31.3z M186.8,31.3c-0.1,0-0.2,0-0.3-0.1s-0.1-0.2-0.1-0.3v-2.5
				c0-0.4-0.1-0.7-0.2-1c-0.1-0.2-0.4-0.4-0.6-0.6c-0.3-0.1-0.6-0.2-0.9-0.2s-0.6,0.1-0.8,0.2c-0.2,0.1-0.4,0.3-0.6,0.5
				c-0.2,0.2-0.2,0.5-0.2,0.7h-0.5c0-0.4,0.1-0.8,0.3-1.1s0.5-0.6,0.8-0.7s0.7-0.3,1.1-0.3c0.4,0,0.9,0.1,1.2,0.3
				c0.4,0.2,0.6,0.5,0.8,0.8c0.2,0.4,0.3,0.8,0.3,1.3v2.5c0,0.1,0,0.2-0.1,0.3S186.9,31.3,186.8,31.3L186.8,31.3z"/>
			<path class="st0" d="M188.5,26.9c-0.1,0-0.2,0-0.2-0.1c-0.1-0.1-0.1-0.1-0.1-0.2s0-0.2,0.1-0.2c0.1-0.1,0.1-0.1,0.2-0.1h2.4
				c0.1,0,0.2,0,0.2,0.1c0.1,0.1,0.1,0.1,0.1,0.2s0,0.2-0.1,0.2c-0.1,0.1-0.1,0.1-0.2,0.1H188.5z M190.9,31.3
				c-0.3,0-0.6-0.1-0.9-0.2s-0.5-0.4-0.6-0.6c-0.1-0.3-0.2-0.6-0.2-1v-4.6c0-0.1,0-0.2,0.1-0.3s0.1-0.1,0.3-0.1s0.2,0,0.3,0.1
				s0.1,0.2,0.1,0.3v4.6c0,0.3,0.1,0.6,0.3,0.8s0.4,0.3,0.7,0.3h0.3c0.1,0,0.2,0,0.2,0.1c0.1,0.1,0.1,0.2,0.1,0.3s0,0.2-0.1,0.3
				s-0.2,0.1-0.3,0.1L190.9,31.3L190.9,31.3z"/>
			<path class="st0" d="M195,31.4c-0.5,0-1-0.1-1.4-0.3s-0.7-0.5-0.9-0.9s-0.3-0.8-0.3-1.4s0.1-1,0.3-1.4s0.5-0.7,0.9-0.9
				s0.8-0.3,1.3-0.3s0.9,0.1,1.3,0.3c0.4,0.2,0.6,0.5,0.8,0.9s0.3,0.8,0.3,1.3c0,0.1,0,0.2-0.1,0.2c-0.1,0.1-0.1,0.1-0.2,0.1h-4.1
				v-0.6h4.1l-0.4,0.3c0-0.4-0.1-0.7-0.2-1s-0.3-0.5-0.6-0.7s-0.6-0.2-0.9-0.2s-0.7,0.1-1,0.3s-0.5,0.4-0.6,0.7s-0.2,0.6-0.2,1
				s0.1,0.7,0.2,1c0.2,0.3,0.4,0.5,0.7,0.7s0.6,0.3,1,0.3c0.2,0,0.5,0,0.7-0.1s0.4-0.2,0.6-0.3c0.1-0.1,0.1-0.1,0.2-0.1
				c0.1,0,0.2,0,0.2,0.1c0.1,0.1,0.1,0.2,0.1,0.2s0,0.2-0.1,0.2c-0.2,0.2-0.5,0.3-0.8,0.4S195.3,31.4,195,31.4L195,31.4z"/>
		</g>
		<g>
			<path class="st0" d="M39,19.2c-0.3,0-0.6-0.1-0.8-0.3s-0.3-0.5-0.3-0.8V1.2c0-0.3,0.1-0.6,0.3-0.8s0.5-0.3,0.8-0.3h11.3
				c0.3,0,0.5,0.1,0.7,0.3s0.3,0.4,0.3,0.7S51.2,1.6,51,1.8s-0.4,0.3-0.7,0.3H40v6.5h7.5c0.3,0,0.6,0.1,0.8,0.3s0.3,0.4,0.3,0.7
				s-0.1,0.5-0.3,0.7s-0.5,0.3-0.8,0.3H40v6.6h10.3c0.3,0,0.5,0.1,0.7,0.3s0.3,0.4,0.3,0.7s-0.1,0.5-0.3,0.7s-0.4,0.3-0.7,0.3H39
				L39,19.2z"/>
			<path class="st0" d="M64.3,19.5c-1.3,0-2.5-0.2-3.7-0.8c-1.2-0.5-2.2-1.2-3-2.1c-0.9-0.9-1.5-1.9-2-3.1s-0.7-2.5-0.7-3.8
				c0-1.4,0.2-2.6,0.7-3.8s1.2-2.2,2-3.1c0.9-0.9,1.9-1.6,3-2.1c1.2-0.5,2.4-0.8,3.7-0.8c1.2,0,2.3,0.2,3.2,0.5
				c0.9,0.3,1.9,0.9,2.8,1.6c0.2,0.1,0.2,0.2,0.3,0.4c0,0.1,0,0.3,0,0.4c0,0.1-0.1,0.2-0.2,0.3c0,0.2-0.1,0.3-0.3,0.4
				s-0.3,0.2-0.6,0.2s-0.4-0.1-0.6-0.2c-0.6-0.6-1.3-1-2-1.2c-0.7-0.3-1.6-0.4-2.6-0.4c-1,0-2,0.2-2.9,0.6c-0.9,0.4-1.7,1-2.4,1.7
				c-0.7,0.7-1.2,1.5-1.6,2.5c-0.4,1-0.6,2-0.6,3c0,1.1,0.2,2.1,0.6,3.1c0.4,1,0.9,1.8,1.6,2.5s1.5,1.3,2.4,1.7s1.9,0.6,2.9,0.6
				c0.9,0,1.7-0.1,2.5-0.4s1.5-0.7,2.2-1.2c0.2-0.2,0.5-0.2,0.7-0.2s0.4,0.1,0.6,0.3s0.3,0.4,0.3,0.7c0,0.1,0,0.3-0.1,0.4
				c0,0.1-0.1,0.2-0.2,0.4c-0.8,0.7-1.8,1.3-2.8,1.6C66.5,19.3,65.4,19.5,64.3,19.5L64.3,19.5z"/>
			<path class="st0" d="M84.2,19.5c-1.4,0-2.7-0.2-3.9-0.7c-1.2-0.5-2.2-1.2-3.1-2s-1.5-1.9-2-3.1c-0.5-1.2-0.7-2.5-0.7-3.9
				s0.2-2.7,0.7-3.9s1.1-2.2,2-3.1c0.9-0.9,1.9-1.6,3.1-2c1.2-0.5,2.5-0.7,3.9-0.7s2.7,0.2,3.9,0.7c1.2,0.5,2.2,1.2,3.1,2
				c0.9,0.9,1.6,1.9,2,3.1c0.5,1.2,0.7,2.5,0.7,3.9s-0.2,2.7-0.7,3.9s-1.2,2.2-2,3.1c-0.9,0.9-1.9,1.5-3.1,2
				C86.9,19.2,85.6,19.5,84.2,19.5z M84.2,17.5c1.1,0,2.1-0.2,3.1-0.6c0.9-0.4,1.8-1,2.4-1.7c0.7-0.7,1.2-1.5,1.6-2.5s0.6-2,0.6-3.1
				s-0.2-2.1-0.6-3.1S90.4,4.7,89.7,4s-1.5-1.3-2.4-1.6c-0.9-0.4-2-0.6-3.1-0.6S82.1,2,81.1,2.4c-0.9,0.4-1.8,0.9-2.4,1.6
				c-0.7,0.7-1.2,1.5-1.6,2.5s-0.6,2-0.6,3.1s0.2,2.1,0.6,3.1s0.9,1.8,1.6,2.5s1.5,1.3,2.4,1.7C82,17.3,83.1,17.5,84.2,17.5z"/>
			<path class="st0" d="M99.7,19.2c-0.3,0-0.5-0.1-0.8-0.3c-0.2-0.2-0.3-0.5-0.3-0.8V1.2c0-0.3,0.1-0.5,0.3-0.8
				c0.2-0.2,0.4-0.3,0.8-0.3s0.5,0.1,0.8,0.3c0.2,0.2,0.3,0.4,0.3,0.8v16h9.3c0.3,0,0.5,0.1,0.8,0.3c0.2,0.2,0.3,0.4,0.3,0.7
				s-0.1,0.5-0.3,0.7c-0.2,0.2-0.4,0.3-0.8,0.3H99.7L99.7,19.2z"/>
			<path class="st0" d="M122.1,19.5c-1.4,0-2.7-0.2-3.9-0.7c-1.2-0.5-2.2-1.2-3.1-2s-1.5-1.9-2-3.1c-0.5-1.2-0.7-2.5-0.7-3.9
				s0.2-2.7,0.7-3.9s1.1-2.2,2-3.1c0.9-0.9,1.9-1.6,3.1-2c1.2-0.5,2.5-0.7,3.9-0.7s2.7,0.2,3.9,0.7s2.2,1.2,3.1,2
				c0.9,0.9,1.6,1.9,2,3.1c0.5,1.2,0.7,2.5,0.7,3.9s-0.2,2.7-0.7,3.9s-1.1,2.2-2,3.1c-0.9,0.9-1.9,1.5-3.1,2
				C124.9,19.2,123.6,19.5,122.1,19.5z M122.1,17.5c1.1,0,2.1-0.2,3.1-0.6c0.9-0.4,1.8-1,2.4-1.7c0.7-0.7,1.2-1.5,1.6-2.5
				c0.4-1,0.6-2,0.6-3.1s-0.2-2.1-0.6-3.1c-0.4-1-0.9-1.8-1.6-2.5c-0.7-0.7-1.5-1.3-2.4-1.6s-2-0.6-3.1-0.6S120,2,119,2.4
				c-0.9,0.4-1.8,0.9-2.4,1.6c-0.7,0.7-1.2,1.5-1.6,2.5s-0.6,2-0.6,3.1s0.2,2.1,0.6,3.1s0.9,1.8,1.6,2.5s1.5,1.3,2.4,1.7
				C120,17.3,121,17.5,122.1,17.5z"/>
			<path class="st0" d="M144.7,19.5c-1.3,0-2.6-0.2-3.7-0.8c-1.1-0.5-2.2-1.2-3-2.1c-0.9-0.9-1.6-1.9-2-3.1s-0.7-2.5-0.7-3.8
				c0-1.4,0.2-2.6,0.7-3.8s1.1-2.2,2-3.1c0.9-0.9,1.9-1.6,3-2.1s2.4-0.8,3.7-0.8c1.2,0,2.3,0.2,3.2,0.5s1.9,0.9,2.8,1.6
				c0.1,0.1,0.2,0.2,0.3,0.4c0,0.1,0,0.3,0,0.4c0,0.1-0.1,0.2-0.2,0.3c0,0.2-0.1,0.3-0.3,0.4c-0.2,0.1-0.3,0.2-0.6,0.2
				s-0.4-0.1-0.6-0.2c-0.6-0.6-1.3-1-2-1.2c-0.7-0.3-1.6-0.4-2.6-0.4s-2,0.2-2.9,0.6c-0.9,0.4-1.7,1-2.4,1.7s-1.2,1.5-1.6,2.5
				s-0.6,2-0.6,3c0,1.1,0.2,2.1,0.6,3.1s0.9,1.8,1.6,2.5c0.7,0.7,1.5,1.3,2.4,1.7s1.9,0.6,2.9,0.6c0.9,0,1.7-0.1,2.5-0.4
				s1.5-0.7,2.2-1.2c0.2-0.2,0.5-0.2,0.7-0.2s0.4,0.1,0.6,0.3c0.2,0.2,0.3,0.4,0.3,0.7c0,0.1,0,0.3-0.1,0.4s-0.1,0.2-0.2,0.4
				c-0.9,0.8-1.8,1.3-2.8,1.6C146.9,19.3,145.9,19.5,144.7,19.5L144.7,19.5z M151,16.6l-2-0.4v-4.8h-3.7c-0.3,0-0.5-0.1-0.8-0.3
				c-0.2-0.2-0.3-0.4-0.3-0.7s0.1-0.5,0.3-0.7s0.4-0.3,0.8-0.3h4.7c0.3,0,0.5,0.1,0.7,0.3s0.3,0.4,0.3,0.8V16.6L151,16.6z"/>
			<path class="st0" d="M156.9,19.2c-0.3,0-0.6-0.1-0.8-0.3s-0.3-0.5-0.3-0.8V1.2c0-0.3,0.1-0.6,0.3-0.8s0.4-0.3,0.8-0.3
				s0.6,0.1,0.8,0.3s0.3,0.5,0.3,0.8v17c0,0.3-0.1,0.6-0.3,0.8C157.4,19.1,157.2,19.2,156.9,19.2L156.9,19.2z"/>
			<path class="st0" d="M172.2,19.5c-1.3,0-2.6-0.2-3.7-0.8c-1.1-0.5-2.2-1.2-3-2.1c-0.9-0.9-1.6-1.9-2-3.1s-0.7-2.5-0.7-3.8
				c0-1.4,0.2-2.6,0.7-3.8s1.1-2.2,2-3.1c0.9-0.9,1.9-1.6,3-2.1s2.4-0.8,3.7-0.8c1.2,0,2.3,0.2,3.2,0.5s1.9,0.9,2.8,1.6
				c0.1,0.1,0.2,0.2,0.3,0.4c0,0.1,0,0.3,0,0.4c0,0.1-0.1,0.2-0.2,0.3c0,0.2-0.1,0.3-0.3,0.4c-0.2,0.1-0.3,0.2-0.6,0.2
				s-0.4-0.1-0.6-0.2c-0.6-0.6-1.3-1-2-1.2c-0.7-0.3-1.6-0.4-2.6-0.4s-2,0.2-2.9,0.6c-0.9,0.4-1.7,1-2.4,1.7s-1.2,1.5-1.6,2.5
				s-0.6,2-0.6,3c0,1.1,0.2,2.1,0.6,3.1s0.9,1.8,1.6,2.5c0.7,0.7,1.5,1.3,2.4,1.7s1.9,0.6,2.9,0.6c0.9,0,1.7-0.1,2.5-0.4
				s1.5-0.7,2.2-1.2c0.2-0.2,0.5-0.2,0.7-0.2s0.4,0.1,0.6,0.3c0.2,0.2,0.3,0.4,0.3,0.7c0,0.1,0,0.3-0.1,0.4
				c-0.1,0.1-0.1,0.2-0.2,0.4c-0.9,0.7-1.8,1.3-2.8,1.6C174.4,19.3,173.3,19.5,172.2,19.5L172.2,19.5z"/>
			<path class="st0" d="M182.3,19.2c-0.4,0-0.7-0.2-0.9-0.5s-0.2-0.7-0.1-1l7.1-16.9c0.2-0.5,0.6-0.7,1-0.7s0.8,0.2,1,0.7l7.1,16.9
				c0.2,0.4,0.1,0.7-0.1,1c-0.2,0.3-0.5,0.5-0.9,0.5c-0.2,0-0.4-0.1-0.6-0.2s-0.3-0.3-0.4-0.5L189,2.6h0.7l-6.6,15.9
				c-0.1,0.2-0.2,0.4-0.4,0.5S182.5,19.3,182.3,19.2L182.3,19.2z M183.8,14.8l0.8-1.8h9.8l0.8,1.8H183.8z"/>
		</g>
		<g>
			<circle class="st1" cx="16.9" cy="15.9" r="15.7"/>
			<g id="m0qVJX.tif">
				<path class="st2" d="M18.8,0.4c0,0.1,0,0.1-0.1,0.2c-1,2.8-2.6,5.2-4.6,7.3c-0.8,0.8-1.6,1.5-2.5,2.1c-0.2,0.1-0.4,0.3-0.3,0.6
					c0,0.1,0,0.2,0.1,0.3c0.3,1.7,0.7,3.3,1.4,4.8c0.1,0.2,0.2,0.4,0.4,0.6c0.8,0.8,1.3,1.8,1.6,2.9c0.6,2.1,0.7,4.3,0.5,6.6
					c-0.2,1.6-0.5,3.2-0.7,4.8c-0.1,0.3-0.1,0.6-0.1,1c1.2,0.2,2.4,0.3,3.6,0.2c0-0.1,0-0.1,0-0.1c-0.1-0.6-0.2-1.2-0.3-1.8
					c-0.3-2-0.7-4.1-0.8-6.1c-0.1-1.4,0-2.8,0.3-4.1c0.4-1.7,1.3-3.1,2.5-4.3c0.9-0.8,1.6-1.7,2.1-2.8c0.9-2,1.5-4,1.9-6.2
					c0.2-1.2,0.4-2.5,0.7-3.7c0-0.2,0-0.3-0.2-0.4C22.4,1.1,20.7,0.6,18.8,0.4L18.8,0.4z M29.5,7.2c-0.7,0-1.4,0.1-2.1,0.2
					c-1.1,0.3-2.1,0.8-3.1,1.4c-0.2,0.1-0.4,0.3-0.4,0.5c-0.2,0.7-0.4,1.3-0.7,1.9c-0.6,1.6-1.5,3.1-2.8,4.3
					c-0.3,0.3-0.6,0.6-0.8,0.9c-0.8,0.9-1.4,2-1.6,3.2c-0.4,1.8-0.3,3.6-0.1,5.4c0.1,1.3,0.4,2.5,0.5,3.8c0.1,0.9,0.3,1.7,0.5,2.6
					c0.7-0.1,1.4-0.3,2-0.4c0-0.1-0.1-0.2-0.1-0.4c-0.7-2.2-1.1-4.5-0.7-6.8c0.3-1.8,1-3.3,2.2-4.6c1.3-1.4,2.8-2.3,4.6-2.9
					c1.3-0.5,2.7-0.8,4.1-0.9c0.4,0,0.7-0.1,1.1-0.1c0.1,0,0.2,0,0.3,0.2c0,0.3,0,0.6,0.1,0.9c-1,0.2-1.9,0.3-2.8,0.5
					c-1.5,0.3-2.9,0.7-4.3,1.5c-1.4,0.8-2.5,1.8-3.2,3.2c-0.1,0.2-0.2,0.4-0.3,0.6c0.1-0.1,0.2-0.1,0.3-0.1c0.4-0.2,0.8-0.4,1.2-0.5
					c1.1-0.4,2.3-0.6,3.5-0.5c1.5,0.2,2.7,0.8,3.7,1.9c0.1,0.1,0.1,0.2,0.2,0.3C33.5,18.1,33,11.6,29.6,7C29.6,7,29.6,7.1,29.5,7.2
					L29.5,7.2z M1.2,15.4c0.2,0,0.2,0.1,0.3,0.1c2.2,0.4,4.3,1.2,6.1,2.6c2.4,1.9,3.5,4.3,3.6,7.3c0.1,1.6-0.2,3.2-0.6,4.7
					c0,0.1,0,0.2,0.1,0.2c0.5,0.2,0.9,0.3,1.4,0.5c0.3,0.1,0.7,0.2,1.1,0.3c0-0.1,0-0.1,0-0.1c0.2-1,0.3-2,0.5-3c0.3-2,0.5-4,0.3-6
					c-0.1-1.4-0.4-2.8-1.1-4.1c-0.4-0.7-0.9-1.2-1.6-1.6c-0.6-0.3-1.1-0.6-1.6-0.9C8.1,14.3,6.9,12.8,6,11C5.4,9.8,4.4,9.2,3.1,8.9
					c-0.2,0-0.3,0-0.4,0.2c-0.6,1.3-1.1,2.6-1.3,4C1.4,13.9,1.3,14.6,1.2,15.4L1.2,15.4z M30.2,23.8c-0.3-0.2-0.6-0.5-0.9-0.7
					c-1-0.8-2.1-1.2-3.4-1.1c-1.5,0.1-2.9,0.6-4.2,1.5c-0.1,0.1-0.3,0.3-0.3,0.5c-0.1,0.3-0.1,0.6-0.1,1c-0.1,1.3,0,2.6,0.4,3.9
					c0.1,0.6,0.3,1.2,0.5,1.8c1.9-0.6,4.2-2,5.8-3.6c1.1-1.1,2-2.3,2.7-3.6C30.5,23.5,30.3,23.7,30.2,23.8z M10,1.9L10,1.9
					c-2,1-3.6,2.2-5,3.8C4.9,5.8,4.9,5.9,5,5.9c0.8,2.3,1.7,4.5,3.2,6.4c0.8,1,1.6,1.8,2.7,2.5c0.1,0.1,0.2,0.1,0.4,0.2
					C9.7,10.7,9.6,6.3,10,1.9L10,1.9z M9.6,29.8c0.1-0.3,0.1-0.5,0.2-0.8c0.3-1.4,0.4-2.9,0.3-4.3c-0.1-0.5-0.2-1-0.7-1.2
					c-0.2-0.1-0.4-0.3-0.6-0.4C7,22,5,21.8,3,22.7c-0.2,0.1-0.2,0.2-0.1,0.3c1.5,2.9,3.6,5.1,6.5,6.7C9.5,29.7,9.5,29.7,9.6,29.8
					L9.6,29.8z M17.6,0.3c-1,0-2.1,0-3.1,0.2c-1.1,0.2-2.1,0.4-3.1,0.8c-0.1,0-0.1,0.1-0.1,0.2c-0.1,0.8-0.2,1.6-0.2,2.4
					c0,1.4,0,2.8,0,4.2c0,0.3,0.1,0.6,0.1,0.8C14.2,6.7,16.2,3.7,17.6,0.3L17.6,0.3z M1.3,16.6c-0.1,1.1,0.7,4.6,1.1,5.2
					c2.3-1.1,4.6-1,6.9,0.2c-0.4-0.9-0.9-1.6-1.6-2.2c-1.1-1.1-2.4-1.8-3.8-2.4C3.1,17,2.2,16.7,1.3,16.6L1.3,16.6z M29.1,6.1
					c-1.1-1.4-2.3-2.5-3.8-3.4c-0.3,1.6-0.6,3.1-0.9,4.7C26,6.7,27.4,6.1,29.1,6.1L29.1,6.1z M4.2,6.8C3.9,7.2,3.7,7.5,3.5,7.9
					C3.9,8,4.2,8,4.6,8.1C4.4,7.7,4.3,7.3,4.2,6.8z"/>
			</g>
		</g>
	</g>
</g>
</svg>
