<svg width="23" height="31" viewBox="0 0 23 31" fill="none" xmlns="http://www.w3.org/2000/svg">
<path d="M22.3281 11.3752C22.3296 9.5401 21.8648 7.73473 20.9771 6.12861C20.0895 4.52248 18.8082 3.16829 17.2536 2.1932C15.699 1.21811 13.9221 0.65411 12.0898 0.554161C10.2574 0.454212 8.42969 0.821592 6.77826 1.62181C5.12684 2.42202 3.70588 3.62881 2.6488 5.12886C1.59173 6.62891 0.933237 8.373 0.735148 10.1974C0.53706 12.0217 0.805878 13.8665 1.51636 15.5585C2.22684 17.2505 3.35568 18.7341 4.79688 19.8701V29.9377C4.79571 30.0258 4.81772 30.1127 4.86071 30.1896C4.90369 30.2665 4.96614 30.3308 5.0418 30.376C5.11684 30.4217 5.20212 30.4481 5.2899 30.4526C5.37768 30.4571 5.4652 30.4396 5.54453 30.4018L11.5 27.424L17.4555 30.4018C17.5344 30.4415 17.6221 30.4603 17.7104 30.4564C17.7986 30.4525 17.8844 30.426 17.9594 30.3794C18.0345 30.3328 18.0963 30.2677 18.139 30.1904C18.1817 30.113 18.2037 30.026 18.2031 29.9377V19.8701C19.489 18.8589 20.5285 17.5689 21.2431 16.0973C21.9576 14.6257 22.3287 13.0111 22.3281 11.3752ZM17.1719 29.0998L11.732 26.3799C11.6588 26.3479 11.5799 26.3315 11.5 26.3315C11.4201 26.3315 11.3412 26.3479 11.268 26.3799L5.82812 29.0998V20.592C7.53249 21.6452 9.49646 22.2031 11.5 22.2031C13.5035 22.2031 15.4675 21.6452 17.1719 20.592V29.0998ZM11.5 21.1721C9.56236 21.1721 7.66824 20.5975 6.05715 19.521C4.44606 18.4445 3.19037 16.9144 2.44887 15.1243C1.70737 13.3341 1.51335 11.3643 1.89137 9.46392C2.26938 7.56351 3.20245 5.81787 4.57256 4.44776C5.94268 3.07764 7.68832 2.14458 9.58872 1.76656C11.4891 1.38855 13.459 1.58256 15.2491 2.32406C17.0392 3.06556 18.5693 4.32125 19.6458 5.93234C20.7223 7.54343 21.2969 9.43755 21.2969 11.3752C21.2935 13.9724 20.2602 16.4623 18.4237 18.2989C16.5871 20.1354 14.0972 21.1687 11.5 21.1721ZM11.5 4.67207C10.1742 4.67207 8.87827 5.0652 7.77594 5.80175C6.67362 6.5383 5.81446 7.58518 5.30712 8.81002C4.79978 10.0349 4.66703 11.3826 4.92567 12.6829C5.18432 13.9832 5.82273 15.1776 6.76017 16.115C7.69762 17.0525 8.89201 17.6909 10.1923 17.9495C11.4926 18.2082 12.8403 18.0754 14.0652 17.5681C15.29 17.0607 16.3369 16.2016 17.0734 15.0992C17.81 13.9969 18.2031 12.7009 18.2031 11.3752C18.2031 9.59741 17.4969 7.89245 16.2398 6.63537C14.9827 5.37829 13.2778 4.67207 11.5 4.67207ZM11.5 17.0471C10.3782 17.0471 9.28161 16.7144 8.34888 16.0912C7.41614 15.4679 6.68916 14.5821 6.25987 13.5457C5.83058 12.5093 5.71826 11.3689 5.93711 10.2687C6.15596 9.16843 6.69615 8.1578 7.48938 7.36457C8.2826 6.57135 9.29324 6.03115 10.3935 5.8123C11.4937 5.59345 12.6341 5.70577 13.6705 6.13506C14.7069 6.56435 15.5928 7.29133 16.216 8.22407C16.8392 9.1568 17.1719 10.2534 17.1719 11.3752C17.1719 12.8795 16.5743 14.3221 15.5106 15.3858C14.4469 16.4495 13.0043 17.0471 11.5 17.0471Z" fill="#314C61"/>
</svg>
